<?xml version="1.0" encoding="UTF-8" standalone="no"?>
<!-- Created with Inkscape (http://www.inkscape.org/) -->

<svg
   xmlns:dc="http://purl.org/dc/elements/1.1/"
   xmlns:cc="http://creativecommons.org/ns#"
   xmlns:rdf="http://www.w3.org/1999/02/22-rdf-syntax-ns#"
   xmlns:svg="http://www.w3.org/2000/svg"
   xmlns="http://www.w3.org/2000/svg"
   xmlns:sodipodi="http://sodipodi.sourceforge.net/DTD/sodipodi-0.dtd"
   xmlns:inkscape="http://www.inkscape.org/namespaces/inkscape"
   width="176.85867mm"
   height="280mm"
   viewBox="0 0 176.85867 280"
   version="1.1"
   id="svg11859"
   inkscape:version="0.92.4 5da689c313, 2019-01-14"
   sodipodi:docname="back-for-raster.svg">
  <defs
     id="defs11853" />
  <sodipodi:namedview
     id="base"
     pagecolor="#ffffff"
     bordercolor="#666666"
     borderopacity="1.0"
     inkscape:pageopacity="0.0"
     inkscape:pageshadow="2"
     inkscape:zoom="0.35"
     inkscape:cx="-120.42637"
     inkscape:cy="-268.07085"
     inkscape:document-units="mm"
     inkscape:current-layer="layer1"
     showgrid="false"
     fit-margin-top="0"
     fit-margin-left="0"
     fit-margin-right="0"
     fit-margin-bottom="0"
     inkscape:window-width="3440"
     inkscape:window-height="1379"
     inkscape:window-x="0"
     inkscape:window-y="0"
     inkscape:window-maximized="1" />
  <metadata
     id="metadata11856">
    <rdf:RDF>
      <cc:Work
         rdf:about="">
        <dc:format>image/svg+xml</dc:format>
        <dc:type
           rdf:resource="http://purl.org/dc/dcmitype/StillImage" />
        <dc:title></dc:title>
      </cc:Work>
    </rdf:RDF>
  </metadata>
  <g
     inkscape:label="Layer 1"
     inkscape:groupmode="layer"
     id="layer1"
     transform="translate(6.6907607,202.09374)">
    <g
       id="g12483"
       transform="matrix(3.3565225,0,0,3.3565225,15.766929,-183.58787)"
       style="stroke-width:0.29792738"
       inkscape:export-xdpi="362.85999"
       inkscape:export-ydpi="362.85999">
      <text
         xml:space="preserve"
         style="font-style:normal;font-variant:normal;font-weight:800;font-stretch:normal;font-size:6.33686686px;line-height:5.9742918px;font-family:'Helvetica Now Display';-inkscape-font-specification:'Helvetica Now Display, Ultra-Bold';font-variant-ligatures:normal;font-variant-caps:normal;font-variant-numeric:normal;font-feature-settings:normal;text-align:center;letter-spacing:0px;word-spacing:0px;writing-mode:lr-tb;text-anchor:middle;fill:#ffffff;fill-opacity:1;stroke:none;stroke-width:0.07882661px;stroke-linecap:butt;stroke-linejoin:miter;stroke-opacity:1"
         x="19.619907"
         y="-1.0015568"
         id="text4812"><tspan
           sodipodi:role="line"
           id="tspan4810"
           x="19.619907"
           y="-1.0015568"
           style="font-style:normal;font-variant:normal;font-weight:800;font-stretch:normal;font-size:6.33686686px;line-height:2.64583325px;font-family:'Helvetica Now Display';-inkscape-font-specification:'Helvetica Now Display, Ultra-Bold';font-variant-ligatures:normal;font-variant-caps:normal;font-variant-numeric:normal;font-feature-settings:normal;text-align:center;writing-mode:lr-tb;text-anchor:middle;fill:#ffffff;stroke-width:0.07882661px">Using inclusive</tspan><tspan
           id="tspan4838"
           sodipodi:role="line"
           x="19.619907"
           y="4.9727349"
           style="font-style:normal;font-variant:normal;font-weight:800;font-stretch:normal;font-size:6.33686686px;line-height:2.64583325px;font-family:'Helvetica Now Display';-inkscape-font-specification:'Helvetica Now Display, Ultra-Bold';font-variant-ligatures:normal;font-variant-caps:normal;font-variant-numeric:normal;font-feature-settings:normal;text-align:center;writing-mode:lr-tb;text-anchor:middle;fill:#ffffff;stroke-width:0.07882661px">language matters!</tspan><tspan
           id="tspan6945"
           sodipodi:role="line"
           x="19.619907"
           y="10.947027"
           style="font-style:normal;font-variant:normal;font-weight:800;font-stretch:normal;font-size:6.33686686px;line-height:2.64583325px;font-family:'Helvetica Now Display';-inkscape-font-specification:'Helvetica Now Display, Ultra-Bold';font-variant-ligatures:normal;font-variant-caps:normal;font-variant-numeric:normal;font-feature-settings:normal;text-align:center;writing-mode:lr-tb;text-anchor:middle;fill:#ffffff;stroke-width:0.07882661px" /><tspan
           id="tspan6971"
           sodipodi:role="line"
           x="19.619907"
           y="16.921318"
           style="font-style:normal;font-variant:normal;font-weight:500;font-stretch:normal;font-size:6.33686686px;line-height:2.64583325px;font-family:'Helvetica Now Display';-inkscape-font-specification:'Helvetica Now Display Medium';font-variant-ligatures:normal;font-variant-caps:normal;font-variant-numeric:normal;font-feature-settings:normal;text-align:center;writing-mode:lr-tb;text-anchor:middle;fill:#ffffff;stroke-width:0.07882661px">guys</tspan><tspan
           id="tspan6949"
           sodipodi:role="line"
           x="19.619907"
           y="22.895611"
           style="font-style:normal;font-variant:normal;font-weight:800;font-stretch:normal;font-size:6.33686686px;line-height:2.64583325px;font-family:'Helvetica Now Display';-inkscape-font-specification:'Helvetica Now Display, Ultra-Bold';font-variant-ligatures:normal;font-variant-caps:normal;font-variant-numeric:normal;font-feature-settings:normal;text-align:center;writing-mode:lr-tb;text-anchor:middle;fill:#ffffff;stroke-width:0.07882661px" /><tspan
           id="tspan6951"
           sodipodi:role="line"
           x="19.619907"
           y="28.869902"
           style="font-style:normal;font-variant:normal;font-weight:800;font-stretch:normal;font-size:6.33686686px;line-height:2.64583325px;font-family:'Helvetica Now Display';-inkscape-font-specification:'Helvetica Now Display, Ultra-Bold';font-variant-ligatures:normal;font-variant-caps:normal;font-variant-numeric:normal;font-feature-settings:normal;text-align:center;writing-mode:lr-tb;text-anchor:middle;fill:#ffffff;stroke-width:0.07882661px">all</tspan><tspan
           id="tspan6953"
           sodipodi:role="line"
           x="19.619907"
           y="34.844193"
           style="font-style:normal;font-variant:normal;font-weight:800;font-stretch:normal;font-size:6.33686686px;line-height:2.64583325px;font-family:'Helvetica Now Display';-inkscape-font-specification:'Helvetica Now Display, Ultra-Bold';font-variant-ligatures:normal;font-variant-caps:normal;font-variant-numeric:normal;font-feature-settings:normal;text-align:center;writing-mode:lr-tb;text-anchor:middle;fill:#ffffff;stroke-width:0.07882661px">folks</tspan><tspan
           id="tspan6955"
           sodipodi:role="line"
           x="19.619907"
           y="40.818485"
           style="font-style:normal;font-variant:normal;font-weight:800;font-stretch:normal;font-size:6.33686686px;line-height:2.64583325px;font-family:'Helvetica Now Display';-inkscape-font-specification:'Helvetica Now Display, Ultra-Bold';font-variant-ligatures:normal;font-variant-caps:normal;font-variant-numeric:normal;font-feature-settings:normal;text-align:center;writing-mode:lr-tb;text-anchor:middle;fill:#ffffff;stroke-width:0.07882661px">friends</tspan><tspan
           id="tspan6957"
           sodipodi:role="line"
           x="19.619907"
           y="46.792778"
           style="font-style:normal;font-variant:normal;font-weight:800;font-stretch:normal;font-size:6.33686686px;line-height:2.64583325px;font-family:'Helvetica Now Display';-inkscape-font-specification:'Helvetica Now Display, Ultra-Bold';font-variant-ligatures:normal;font-variant-caps:normal;font-variant-numeric:normal;font-feature-settings:normal;text-align:center;writing-mode:lr-tb;text-anchor:middle;fill:#ffffff;stroke-width:0.07882661px">meatbags</tspan><tspan
           id="tspan6959"
           sodipodi:role="line"
           x="19.619907"
           y="52.767071"
           style="font-style:normal;font-variant:normal;font-weight:800;font-stretch:normal;font-size:6.33686686px;line-height:2.64583325px;font-family:'Helvetica Now Display';-inkscape-font-specification:'Helvetica Now Display, Ultra-Bold';font-variant-ligatures:normal;font-variant-caps:normal;font-variant-numeric:normal;font-feature-settings:normal;text-align:center;writing-mode:lr-tb;text-anchor:middle;fill:#ffffff;stroke-width:0.07882661px" /><tspan
           id="tspan6969"
           sodipodi:role="line"
           x="19.619907"
           y="58.741364"
           style="font-style:normal;font-variant:normal;font-weight:500;font-stretch:normal;font-size:6.33686686px;line-height:2.64583325px;font-family:'Helvetica Now Display';-inkscape-font-specification:'Helvetica Now Display Medium';font-variant-ligatures:normal;font-variant-caps:normal;font-variant-numeric:normal;font-feature-settings:normal;text-align:center;writing-mode:lr-tb;text-anchor:middle;fill:#ffffff;stroke-width:0.07882661px">craftsman</tspan><tspan
           id="tspan6963"
           sodipodi:role="line"
           x="19.619907"
           y="64.715652"
           style="font-style:normal;font-variant:normal;font-weight:800;font-stretch:normal;font-size:6.33686686px;line-height:2.64583325px;font-family:'Helvetica Now Display';-inkscape-font-specification:'Helvetica Now Display, Ultra-Bold';font-variant-ligatures:normal;font-variant-caps:normal;font-variant-numeric:normal;font-feature-settings:normal;text-align:center;writing-mode:lr-tb;text-anchor:middle;fill:#ffffff;stroke-width:0.07882661px" /><tspan
           id="tspan6965"
           sodipodi:role="line"
           x="19.619907"
           y="70.689949"
           style="font-style:normal;font-variant:normal;font-weight:800;font-stretch:normal;font-size:6.33686686px;line-height:2.64583325px;font-family:'Helvetica Now Display';-inkscape-font-specification:'Helvetica Now Display, Ultra-Bold';font-variant-ligatures:normal;font-variant-caps:normal;font-variant-numeric:normal;font-feature-settings:normal;text-align:center;writing-mode:lr-tb;text-anchor:middle;fill:#ffffff;stroke-width:0.07882661px">crafter</tspan><tspan
           id="tspan6967"
           sodipodi:role="line"
           x="19.619907"
           y="76.664238"
           style="font-style:normal;font-variant:normal;font-weight:800;font-stretch:normal;font-size:6.33686686px;line-height:2.64583325px;font-family:'Helvetica Now Display';-inkscape-font-specification:'Helvetica Now Display, Ultra-Bold';font-variant-ligatures:normal;font-variant-caps:normal;font-variant-numeric:normal;font-feature-settings:normal;text-align:center;writing-mode:lr-tb;text-anchor:middle;fill:#ffffff;stroke-width:0.07882661px">craftsperson</tspan></text>
      <g
         style="stroke-width:0.39737421"
         transform="matrix(0.97458117,0,0,0.57677098,-112.10216,-60.811815)"
         id="g10988">
        <g
           transform="matrix(3.3367008,2.0604856,-4.4519541,1.544316,-178.90561,-24.60071)"
           id="g10960"
           style="font-style:normal;font-variant:normal;font-weight:normal;font-stretch:normal;font-size:4.93888903px;line-height:6.61458302px;font-family:'Rock Salt';-inkscape-font-specification:'Rock Salt, Normal';font-variant-ligatures:normal;font-variant-caps:normal;font-variant-numeric:normal;font-feature-settings:normal;text-align:center;letter-spacing:0px;word-spacing:0px;writing-mode:lr-tb;text-anchor:middle;fill:#d40000;fill-opacity:1;stroke:none;stroke-width:0.02777782px;stroke-linecap:butt;stroke-linejoin:miter;stroke-opacity:1"
           aria-label="1">
          <path
             inkscape:connector-curvature="0"
             id="path10958"
             style="font-style:normal;font-variant:normal;font-weight:normal;font-stretch:normal;font-size:4.93888903px;font-family:'Rock Salt';-inkscape-font-specification:'Rock Salt, Normal';font-variant-ligatures:normal;font-variant-caps:normal;font-variant-numeric:normal;font-feature-settings:normal;text-align:center;writing-mode:lr-tb;text-anchor:middle;fill:#d40000;fill-opacity:1;stroke-width:0.02777782px"
             d="m 105.7285,5.9151221 q 0,0.096463 -0.0241,0.1881023 -0.0241,0.086816 -0.0386,0.1832791 -0.005,0.00965 -0.005,0.033762 0,0.028939 0.005,0.057878 0.005,0.024116 0.0145,0.048231 -0.0482,0.096463 -0.0724,0.2073948 -0.0241,0.1061089 -0.0434,0.217041 -0.0193,0.1109321 -0.0386,0.2218642 -0.0193,0.110932 -0.0531,0.217041 v 0.014469 q 0,0.024116 0.01,0.043408 0.0145,0.019292 0.0145,0.043408 v 0.019292 q -0.0627,0.2025717 -0.0965,0.4196127 -0.0338,0.2122179 -0.11093,0.3954969 0.01,0.048231 0.01,0.072347 0,0.053054 -0.0145,0.096463 -0.01,0.038585 -0.0289,0.072347 -0.0145,0.028939 -0.0338,0.062701 -0.0145,0.028939 -0.0241,0.062701 -0.005,0.019293 -0.005,0.038585 0,0.019293 0,0.038585 -0.005,0.110932 -0.01,0.1929253 -0.005,0.081993 -0.0675,0.178456 -0.005,0.1254014 -0.0289,0.2411567 -0.0193,0.1157552 -0.0579,0.2363335 -0.0241,0.096463 -0.0579,0.1929254 -0.0338,0.096463 -0.0482,0.1929253 -0.01,0.048231 -0.005,0.1205787 0.01,0.06752 0.01,0.120579 0,0.110932 -0.01,0.217041 -0.005,0.110932 -0.0289,0.212217 0.0145,0.07235 0.053,0.130225 0.0386,0.0627 0.0482,0.135048 0.0145,0.01447 0.0289,0.01447 0.01,0 0.0193,-0.0048 0.0145,-0.0048 0.0289,-0.0048 0.0193,0 0.0289,0.0096 0.0145,0.03858 0.0145,0.06752 0,0.05788 -0.0531,0.101286 0.005,0.02894 0.005,0.04823 0,0.02412 0,0.04823 0,0.03376 -0.01,0.08682 -0.005,0.05305 -0.053,0.05305 -0.0241,0 -0.0241,-0.02894 0.005,-0.02412 -0.0193,-0.03376 -0.0289,0.0096 -0.0482,0.0096 -0.0386,0 -0.0627,-0.01447 -0.0241,-0.01447 -0.0482,-0.02894 -0.0241,-0.01447 -0.0531,-0.02894 -0.0241,-0.0096 -0.0627,-0.0048 -0.0386,-0.07235 -0.0868,-0.139871 -0.0434,-0.0627 -0.10128,-0.115755 -0.0338,-0.115756 -0.0434,-0.241157 -0.005,-0.120578 -0.0482,-0.23151 0.005,-0.0048 0.0145,-0.02894 0.01,-0.02412 0.0193,-0.04823 0.01,-0.02412 0.0145,-0.04823 0.01,-0.02412 0.01,-0.03376 0,-0.02894 -0.01,-0.05305 -0.01,-0.01929 -0.0145,-0.04341 0.0338,-0.110933 0.0434,-0.2411577 0.01,-0.1302246 0.0627,-0.2266873 0.005,-0.048231 0.01,-0.1109321 0.005,-0.067524 0.0145,-0.1254014 0.0145,-0.062701 0.0338,-0.1157552 0.0241,-0.057878 0.0675,-0.096463 -0.01,-0.024116 -0.0145,-0.053055 0,-0.033762 0,-0.057878 0,-0.1157552 0.0241,-0.2218642 0.0289,-0.110932 0.0627,-0.2218641 0.01,-0.033762 0.0193,-0.067524 0.0145,-0.033762 0.0241,-0.072347 0.005,-0.00965 0,-0.019292 0,-0.00965 0,-0.019293 0,-0.057878 -0.0145,-0.110932 0.0289,-0.019293 0.0386,-0.048231 0.01,-0.033762 0.0145,-0.067524 0.01,-0.038585 0.0193,-0.072347 0.01,-0.033762 0.0338,-0.057878 V 8.114443 q 0,-0.1688097 0.0482,-0.3279731 0.0482,-0.1639866 0.0868,-0.32315 v -0.019292 q 0,-0.019293 -0.01,-0.028939 -0.01,-0.00965 -0.01,-0.028939 v -0.00965 q 0.01,-0.043408 0.0241,-0.081993 0.0145,-0.043408 0.0241,-0.086816 0.0241,-0.1061089 0.0289,-0.2122179 0.01,-0.1061089 0.0482,-0.2073947 -0.01,-0.038585 -0.01,-0.07717 0,-0.038585 0,-0.07717 0,-0.1109321 0.01,-0.2122179 0.0145,-0.1061089 0.0386,-0.2122179 0.01,-0.038585 0.0241,-0.1012858 0.0193,-0.062701 0.0193,-0.096463 0,-0.057878 -0.0145,-0.1157552 -0.0145,-0.062701 -0.0145,-0.1205783 0,-0.028939 0.005,-0.057878 0.005,-0.028939 0.0241,-0.053054 -0.0338,-0.062701 -0.0338,-0.144694 0,-0.067524 0.0193,-0.1350478 0.0193,-0.072347 0.0675,-0.1205783 h 0.14469 q 0.0675,0 0.13505,0.019292 0.0675,0.019293 0.10129,0.086816 0.01,0.014469 0.0193,0.053055 0.0145,0.033762 0.0241,0.07717 0.0145,0.038585 0.0241,0.07717 0.01,0.033762 0.01,0.053055 0,0.057878 -0.0289,0.1061089 0.0338,0.038585 0.0386,0.086816 0.01,0.043408 0.01,0.091639 z" />
        </g>
        <g
           aria-label="1"
           style="font-style:normal;font-variant:normal;font-weight:normal;font-stretch:normal;font-size:4.93888903px;line-height:6.61458302px;font-family:'Rock Salt';-inkscape-font-specification:'Rock Salt, Normal';font-variant-ligatures:normal;font-variant-caps:normal;font-variant-numeric:normal;font-feature-settings:normal;text-align:center;letter-spacing:0px;word-spacing:0px;writing-mode:lr-tb;text-anchor:middle;fill:#d40000;fill-opacity:1;stroke:none;stroke-width:0.02777782px;stroke-linecap:butt;stroke-linejoin:miter;stroke-opacity:1"
           id="g10964"
           transform="matrix(-3.3367008,2.0604856,4.4519541,1.544316,449.5011,-24.60071)">
          <path
             d="m 105.7285,5.9151221 q 0,0.096463 -0.0241,0.1881023 -0.0241,0.086816 -0.0386,0.1832791 -0.005,0.00965 -0.005,0.033762 0,0.028939 0.005,0.057878 0.005,0.024116 0.0145,0.048231 -0.0482,0.096463 -0.0724,0.2073948 -0.0241,0.1061089 -0.0434,0.217041 -0.0193,0.1109321 -0.0386,0.2218642 -0.0193,0.110932 -0.0531,0.217041 v 0.014469 q 0,0.024116 0.01,0.043408 0.0145,0.019292 0.0145,0.043408 v 0.019292 q -0.0627,0.2025717 -0.0965,0.4196127 -0.0338,0.2122179 -0.11093,0.3954969 0.01,0.048231 0.01,0.072347 0,0.053054 -0.0145,0.096463 -0.01,0.038585 -0.0289,0.072347 -0.0145,0.028939 -0.0338,0.062701 -0.0145,0.028939 -0.0241,0.062701 -0.005,0.019293 -0.005,0.038585 0,0.019293 0,0.038585 -0.005,0.110932 -0.01,0.1929253 -0.005,0.081993 -0.0675,0.178456 -0.005,0.1254014 -0.0289,0.2411567 -0.0193,0.1157552 -0.0579,0.2363335 -0.0241,0.096463 -0.0579,0.1929254 -0.0338,0.096463 -0.0482,0.1929253 -0.01,0.048231 -0.005,0.1205787 0.01,0.06752 0.01,0.120579 0,0.110932 -0.01,0.217041 -0.005,0.110932 -0.0289,0.212217 0.0145,0.07235 0.053,0.130225 0.0386,0.0627 0.0482,0.135048 0.0145,0.01447 0.0289,0.01447 0.01,0 0.0193,-0.0048 0.0145,-0.0048 0.0289,-0.0048 0.0193,0 0.0289,0.0096 0.0145,0.03858 0.0145,0.06752 0,0.05788 -0.0531,0.101286 0.005,0.02894 0.005,0.04823 0,0.02412 0,0.04823 0,0.03376 -0.01,0.08682 -0.005,0.05305 -0.053,0.05305 -0.0241,0 -0.0241,-0.02894 0.005,-0.02412 -0.0193,-0.03376 -0.0289,0.0096 -0.0482,0.0096 -0.0386,0 -0.0627,-0.01447 -0.0241,-0.01447 -0.0482,-0.02894 -0.0241,-0.01447 -0.0531,-0.02894 -0.0241,-0.0096 -0.0627,-0.0048 -0.0386,-0.07235 -0.0868,-0.139871 -0.0434,-0.0627 -0.10128,-0.115755 -0.0338,-0.115756 -0.0434,-0.241157 -0.005,-0.120578 -0.0482,-0.23151 0.005,-0.0048 0.0145,-0.02894 0.01,-0.02412 0.0193,-0.04823 0.01,-0.02412 0.0145,-0.04823 0.01,-0.02412 0.01,-0.03376 0,-0.02894 -0.01,-0.05305 -0.01,-0.01929 -0.0145,-0.04341 0.0338,-0.110933 0.0434,-0.2411577 0.01,-0.1302246 0.0627,-0.2266873 0.005,-0.048231 0.01,-0.1109321 0.005,-0.067524 0.0145,-0.1254014 0.0145,-0.062701 0.0338,-0.1157552 0.0241,-0.057878 0.0675,-0.096463 -0.01,-0.024116 -0.0145,-0.053055 0,-0.033762 0,-0.057878 0,-0.1157552 0.0241,-0.2218642 0.0289,-0.110932 0.0627,-0.2218641 0.01,-0.033762 0.0193,-0.067524 0.0145,-0.033762 0.0241,-0.072347 0.005,-0.00965 0,-0.019292 0,-0.00965 0,-0.019293 0,-0.057878 -0.0145,-0.110932 0.0289,-0.019293 0.0386,-0.048231 0.01,-0.033762 0.0145,-0.067524 0.01,-0.038585 0.0193,-0.072347 0.01,-0.033762 0.0338,-0.057878 V 8.114443 q 0,-0.1688097 0.0482,-0.3279731 0.0482,-0.1639866 0.0868,-0.32315 v -0.019292 q 0,-0.019293 -0.01,-0.028939 -0.01,-0.00965 -0.01,-0.028939 v -0.00965 q 0.01,-0.043408 0.0241,-0.081993 0.0145,-0.043408 0.0241,-0.086816 0.0241,-0.1061089 0.0289,-0.2122179 0.01,-0.1061089 0.0482,-0.2073947 -0.01,-0.038585 -0.01,-0.07717 0,-0.038585 0,-0.07717 0,-0.1109321 0.01,-0.2122179 0.0145,-0.1061089 0.0386,-0.2122179 0.01,-0.038585 0.0241,-0.1012858 0.0193,-0.062701 0.0193,-0.096463 0,-0.057878 -0.0145,-0.1157552 -0.0145,-0.062701 -0.0145,-0.1205783 0,-0.028939 0.005,-0.057878 0.005,-0.028939 0.0241,-0.053054 -0.0338,-0.062701 -0.0338,-0.144694 0,-0.067524 0.0193,-0.1350478 0.0193,-0.072347 0.0675,-0.1205783 h 0.14469 q 0.0675,0 0.13505,0.019292 0.0675,0.019293 0.10129,0.086816 0.01,0.014469 0.0193,0.053055 0.0145,0.033762 0.0241,0.07717 0.0145,0.038585 0.0241,0.07717 0.01,0.033762 0.01,0.053055 0,0.057878 -0.0289,0.1061089 0.0338,0.038585 0.0386,0.086816 0.01,0.043408 0.01,0.091639 z"
             style="font-style:normal;font-variant:normal;font-weight:normal;font-stretch:normal;font-size:4.93888903px;font-family:'Rock Salt';-inkscape-font-specification:'Rock Salt, Normal';font-variant-ligatures:normal;font-variant-caps:normal;font-variant-numeric:normal;font-feature-settings:normal;text-align:center;writing-mode:lr-tb;text-anchor:middle;fill:#d40000;fill-opacity:1;stroke-width:0.02777782px"
             id="path10962"
             inkscape:connector-curvature="0" />
        </g>
      </g>
      <g
         style="stroke-width:0.52869028"
         transform="matrix(0.56351964,0,0,0.56351964,-59.657808,-116.05799)"
         id="g10994">
        <g
           transform="matrix(-2.8569147,1.773051,3.8118052,1.3288863,409.70779,36.21992)"
           id="g10968"
           style="font-style:normal;font-variant:normal;font-weight:normal;font-stretch:normal;font-size:4.93888903px;line-height:6.61458302px;font-family:'Rock Salt';-inkscape-font-specification:'Rock Salt, Normal';font-variant-ligatures:normal;font-variant-caps:normal;font-variant-numeric:normal;font-feature-settings:normal;text-align:center;letter-spacing:0px;word-spacing:0px;writing-mode:lr-tb;text-anchor:middle;fill:#d40000;fill-opacity:1;stroke:none;stroke-width:0.04305602px;stroke-linecap:butt;stroke-linejoin:miter;stroke-opacity:1"
           aria-label="1">
          <path
             inkscape:connector-curvature="0"
             id="path10966"
             style="font-style:normal;font-variant:normal;font-weight:normal;font-stretch:normal;font-size:4.93888903px;font-family:'Rock Salt';-inkscape-font-specification:'Rock Salt, Normal';font-variant-ligatures:normal;font-variant-caps:normal;font-variant-numeric:normal;font-feature-settings:normal;text-align:center;writing-mode:lr-tb;text-anchor:middle;fill:#d40000;fill-opacity:1;stroke-width:0.04305602px"
             d="m 105.7285,5.9151221 q 0,0.096463 -0.0241,0.1881023 -0.0241,0.086816 -0.0386,0.1832791 -0.005,0.00965 -0.005,0.033762 0,0.028939 0.005,0.057878 0.005,0.024116 0.0145,0.048231 -0.0482,0.096463 -0.0724,0.2073948 -0.0241,0.1061089 -0.0434,0.217041 -0.0193,0.1109321 -0.0386,0.2218642 -0.0193,0.110932 -0.0531,0.217041 v 0.014469 q 0,0.024116 0.01,0.043408 0.0145,0.019292 0.0145,0.043408 v 0.019292 q -0.0627,0.2025717 -0.0965,0.4196127 -0.0338,0.2122179 -0.11093,0.3954969 0.01,0.048231 0.01,0.072347 0,0.053054 -0.0145,0.096463 -0.01,0.038585 -0.0289,0.072347 -0.0145,0.028939 -0.0338,0.062701 -0.0145,0.028939 -0.0241,0.062701 -0.005,0.019293 -0.005,0.038585 0,0.019293 0,0.038585 -0.005,0.110932 -0.01,0.1929253 -0.005,0.081993 -0.0675,0.178456 -0.005,0.1254014 -0.0289,0.2411567 -0.0193,0.1157552 -0.0579,0.2363335 -0.0241,0.096463 -0.0579,0.1929254 -0.0338,0.096463 -0.0482,0.1929253 -0.01,0.048231 -0.005,0.1205787 0.01,0.06752 0.01,0.120579 0,0.110932 -0.01,0.217041 -0.005,0.110932 -0.0289,0.212217 0.0145,0.07235 0.053,0.130225 0.0386,0.0627 0.0482,0.135048 0.0145,0.01447 0.0289,0.01447 0.01,0 0.0193,-0.0048 0.0145,-0.0048 0.0289,-0.0048 0.0193,0 0.0289,0.0096 0.0145,0.03858 0.0145,0.06752 0,0.05788 -0.0531,0.101286 0.005,0.02894 0.005,0.04823 0,0.02412 0,0.04823 0,0.03376 -0.01,0.08682 -0.005,0.05305 -0.053,0.05305 -0.0241,0 -0.0241,-0.02894 0.005,-0.02412 -0.0193,-0.03376 -0.0289,0.0096 -0.0482,0.0096 -0.0386,0 -0.0627,-0.01447 -0.0241,-0.01447 -0.0482,-0.02894 -0.0241,-0.01447 -0.0531,-0.02894 -0.0241,-0.0096 -0.0627,-0.0048 -0.0386,-0.07235 -0.0868,-0.139871 -0.0434,-0.0627 -0.10128,-0.115755 -0.0338,-0.115756 -0.0434,-0.241157 -0.005,-0.120578 -0.0482,-0.23151 0.005,-0.0048 0.0145,-0.02894 0.01,-0.02412 0.0193,-0.04823 0.01,-0.02412 0.0145,-0.04823 0.01,-0.02412 0.01,-0.03376 0,-0.02894 -0.01,-0.05305 -0.01,-0.01929 -0.0145,-0.04341 0.0338,-0.110933 0.0434,-0.2411577 0.01,-0.1302246 0.0627,-0.2266873 0.005,-0.048231 0.01,-0.1109321 0.005,-0.067524 0.0145,-0.1254014 0.0145,-0.062701 0.0338,-0.1157552 0.0241,-0.057878 0.0675,-0.096463 -0.01,-0.024116 -0.0145,-0.053055 0,-0.033762 0,-0.057878 0,-0.1157552 0.0241,-0.2218642 0.0289,-0.110932 0.0627,-0.2218641 0.01,-0.033762 0.0193,-0.067524 0.0145,-0.033762 0.0241,-0.072347 0.005,-0.00965 0,-0.019292 0,-0.00965 0,-0.019293 0,-0.057878 -0.0145,-0.110932 0.0289,-0.019293 0.0386,-0.048231 0.01,-0.033762 0.0145,-0.067524 0.01,-0.038585 0.0193,-0.072347 0.01,-0.033762 0.0338,-0.057878 V 8.114443 q 0,-0.1688097 0.0482,-0.3279731 0.0482,-0.1639866 0.0868,-0.32315 v -0.019292 q 0,-0.019293 -0.01,-0.028939 -0.01,-0.00965 -0.01,-0.028939 v -0.00965 q 0.01,-0.043408 0.0241,-0.081993 0.0145,-0.043408 0.0241,-0.086816 0.0241,-0.1061089 0.0289,-0.2122179 0.01,-0.1061089 0.0482,-0.2073947 -0.01,-0.038585 -0.01,-0.07717 0,-0.038585 0,-0.07717 0,-0.1109321 0.01,-0.2122179 0.0145,-0.1061089 0.0386,-0.2122179 0.01,-0.038585 0.0241,-0.1012858 0.0193,-0.062701 0.0193,-0.096463 0,-0.057878 -0.0145,-0.1157552 -0.0145,-0.062701 -0.0145,-0.1205783 0,-0.028939 0.005,-0.057878 0.005,-0.028939 0.0241,-0.053054 -0.0338,-0.062701 -0.0338,-0.144694 0,-0.067524 0.0193,-0.1350478 0.0193,-0.072347 0.0675,-0.1205783 h 0.14469 q 0.0675,0 0.13505,0.019292 0.0675,0.019293 0.10129,0.086816 0.01,0.014469 0.0193,0.053055 0.0145,0.033762 0.0241,0.07717 0.0145,0.038585 0.0241,0.07717 0.01,0.033762 0.01,0.053055 0,0.057878 -0.0289,0.1061089 0.0338,0.038585 0.0386,0.086816 0.01,0.043408 0.01,0.091639 z" />
        </g>
        <g
           aria-label="1"
           style="font-style:normal;font-variant:normal;font-weight:normal;font-stretch:normal;font-size:4.93888903px;line-height:6.61458302px;font-family:'Rock Salt';-inkscape-font-specification:'Rock Salt, Normal';font-variant-ligatures:normal;font-variant-caps:normal;font-variant-numeric:normal;font-feature-settings:normal;text-align:center;letter-spacing:0px;word-spacing:0px;writing-mode:lr-tb;text-anchor:middle;fill:#d40000;fill-opacity:1;stroke:none;stroke-width:0.04305602px;stroke-linecap:butt;stroke-linejoin:miter;stroke-opacity:1"
           id="g10972"
           transform="matrix(2.8569147,1.773051,-3.8118052,1.3288863,-128.33996,36.21992)">
          <path
             d="m 105.7285,5.9151221 q 0,0.096463 -0.0241,0.1881023 -0.0241,0.086816 -0.0386,0.1832791 -0.005,0.00965 -0.005,0.033762 0,0.028939 0.005,0.057878 0.005,0.024116 0.0145,0.048231 -0.0482,0.096463 -0.0724,0.2073948 -0.0241,0.1061089 -0.0434,0.217041 -0.0193,0.1109321 -0.0386,0.2218642 -0.0193,0.110932 -0.0531,0.217041 v 0.014469 q 0,0.024116 0.01,0.043408 0.0145,0.019292 0.0145,0.043408 v 0.019292 q -0.0627,0.2025717 -0.0965,0.4196127 -0.0338,0.2122179 -0.11093,0.3954969 0.01,0.048231 0.01,0.072347 0,0.053054 -0.0145,0.096463 -0.01,0.038585 -0.0289,0.072347 -0.0145,0.028939 -0.0338,0.062701 -0.0145,0.028939 -0.0241,0.062701 -0.005,0.019293 -0.005,0.038585 0,0.019293 0,0.038585 -0.005,0.110932 -0.01,0.1929253 -0.005,0.081993 -0.0675,0.178456 -0.005,0.1254014 -0.0289,0.2411567 -0.0193,0.1157552 -0.0579,0.2363335 -0.0241,0.096463 -0.0579,0.1929254 -0.0338,0.096463 -0.0482,0.1929253 -0.01,0.048231 -0.005,0.1205787 0.01,0.06752 0.01,0.120579 0,0.110932 -0.01,0.217041 -0.005,0.110932 -0.0289,0.212217 0.0145,0.07235 0.053,0.130225 0.0386,0.0627 0.0482,0.135048 0.0145,0.01447 0.0289,0.01447 0.01,0 0.0193,-0.0048 0.0145,-0.0048 0.0289,-0.0048 0.0193,0 0.0289,0.0096 0.0145,0.03858 0.0145,0.06752 0,0.05788 -0.0531,0.101286 0.005,0.02894 0.005,0.04823 0,0.02412 0,0.04823 0,0.03376 -0.01,0.08682 -0.005,0.05305 -0.053,0.05305 -0.0241,0 -0.0241,-0.02894 0.005,-0.02412 -0.0193,-0.03376 -0.0289,0.0096 -0.0482,0.0096 -0.0386,0 -0.0627,-0.01447 -0.0241,-0.01447 -0.0482,-0.02894 -0.0241,-0.01447 -0.0531,-0.02894 -0.0241,-0.0096 -0.0627,-0.0048 -0.0386,-0.07235 -0.0868,-0.139871 -0.0434,-0.0627 -0.10128,-0.115755 -0.0338,-0.115756 -0.0434,-0.241157 -0.005,-0.120578 -0.0482,-0.23151 0.005,-0.0048 0.0145,-0.02894 0.01,-0.02412 0.0193,-0.04823 0.01,-0.02412 0.0145,-0.04823 0.01,-0.02412 0.01,-0.03376 0,-0.02894 -0.01,-0.05305 -0.01,-0.01929 -0.0145,-0.04341 0.0338,-0.110933 0.0434,-0.2411577 0.01,-0.1302246 0.0627,-0.2266873 0.005,-0.048231 0.01,-0.1109321 0.005,-0.067524 0.0145,-0.1254014 0.0145,-0.062701 0.0338,-0.1157552 0.0241,-0.057878 0.0675,-0.096463 -0.01,-0.024116 -0.0145,-0.053055 0,-0.033762 0,-0.057878 0,-0.1157552 0.0241,-0.2218642 0.0289,-0.110932 0.0627,-0.2218641 0.01,-0.033762 0.0193,-0.067524 0.0145,-0.033762 0.0241,-0.072347 0.005,-0.00965 0,-0.019292 0,-0.00965 0,-0.019293 0,-0.057878 -0.0145,-0.110932 0.0289,-0.019293 0.0386,-0.048231 0.01,-0.033762 0.0145,-0.067524 0.01,-0.038585 0.0193,-0.072347 0.01,-0.033762 0.0338,-0.057878 V 8.114443 q 0,-0.1688097 0.0482,-0.3279731 0.0482,-0.1639866 0.0868,-0.32315 v -0.019292 q 0,-0.019293 -0.01,-0.028939 -0.01,-0.00965 -0.01,-0.028939 v -0.00965 q 0.01,-0.043408 0.0241,-0.081993 0.0145,-0.043408 0.0241,-0.086816 0.0241,-0.1061089 0.0289,-0.2122179 0.01,-0.1061089 0.0482,-0.2073947 -0.01,-0.038585 -0.01,-0.07717 0,-0.038585 0,-0.07717 0,-0.1109321 0.01,-0.2122179 0.0145,-0.1061089 0.0386,-0.2122179 0.01,-0.038585 0.0241,-0.1012858 0.0193,-0.062701 0.0193,-0.096463 0,-0.057878 -0.0145,-0.1157552 -0.0145,-0.062701 -0.0145,-0.1205783 0,-0.028939 0.005,-0.057878 0.005,-0.028939 0.0241,-0.053054 -0.0338,-0.062701 -0.0338,-0.144694 0,-0.067524 0.0193,-0.1350478 0.0193,-0.072347 0.0675,-0.1205783 h 0.14469 q 0.0675,0 0.13505,0.019292 0.0675,0.019293 0.10129,0.086816 0.01,0.014469 0.0193,0.053055 0.0145,0.033762 0.0241,0.07717 0.0145,0.038585 0.0241,0.07717 0.01,0.033762 0.01,0.053055 0,0.057878 -0.0289,0.1061089 0.0338,0.038585 0.0386,0.086816 0.01,0.043408 0.01,0.091639 z"
             style="font-style:normal;font-variant:normal;font-weight:normal;font-stretch:normal;font-size:4.93888903px;font-family:'Rock Salt';-inkscape-font-specification:'Rock Salt, Normal';font-variant-ligatures:normal;font-variant-caps:normal;font-variant-numeric:normal;font-feature-settings:normal;text-align:center;writing-mode:lr-tb;text-anchor:middle;fill:#d40000;fill-opacity:1;stroke-width:0.04305602px"
             id="path10970"
             inkscape:connector-curvature="0" />
        </g>
      </g>
    </g>
  </g>
</svg>
