<?xml version="1.0" encoding="UTF-8" standalone="no"?>
<!-- Created with Inkscape (http://www.inkscape.org/) -->

<svg
   xmlns:dc="http://purl.org/dc/elements/1.1/"
   xmlns:cc="http://creativecommons.org/ns#"
   xmlns:rdf="http://www.w3.org/1999/02/22-rdf-syntax-ns#"
   xmlns:svg="http://www.w3.org/2000/svg"
   xmlns="http://www.w3.org/2000/svg"
   xmlns:sodipodi="http://sodipodi.sourceforge.net/DTD/sodipodi-0.dtd"
   xmlns:inkscape="http://www.inkscape.org/namespaces/inkscape"
   width="280mm"
   height="222.09901mm"
   viewBox="0 0 280 222.09901"
   version="1.1"
   id="svg11076"
   inkscape:version="0.92.4 5da689c313, 2019-01-14"
   sodipodi:docname="front-for-raster.svg">
  <defs
     id="defs11070" />
  <sodipodi:namedview
     id="base"
     pagecolor="#ffffff"
     bordercolor="#666666"
     borderopacity="1.0"
     inkscape:pageopacity="0.0"
     inkscape:pageshadow="2"
     inkscape:zoom="0.35"
     inkscape:cx="-186.77328"
     inkscape:cy="259.7339"
     inkscape:document-units="mm"
     inkscape:current-layer="layer1"
     showgrid="false"
     fit-margin-top="0"
     fit-margin-left="0"
     fit-margin-right="0"
     fit-margin-bottom="0"
     inkscape:window-width="3440"
     inkscape:window-height="1379"
     inkscape:window-x="0"
     inkscape:window-y="0"
     inkscape:window-maximized="1" />
  <metadata
     id="metadata11073">
    <rdf:RDF>
      <cc:Work
         rdf:about="">
        <dc:format>image/svg+xml</dc:format>
        <dc:type
           rdf:resource="http://purl.org/dc/dcmitype/StillImage" />
        <dc:title></dc:title>
      </cc:Work>
    </rdf:RDF>
  </metadata>
  <g
     inkscape:label="Layer 1"
     inkscape:groupmode="layer"
     id="layer1"
     transform="translate(-10.863526,4.5444263)">
    <g
       id="g11799"
       transform="matrix(1.2251187,0,0,1.2251187,-85.797407,-5.4474275)"
       style="stroke-width:0.81624746">
      <path
         inkscape:connector-curvature="0"
         id="path1602"
         style="font-style:normal;font-variant:normal;font-weight:800;font-stretch:normal;font-size:12.27705574px;line-height:16.44229889px;font-family:'Helvetica Now Display';-inkscape-font-specification:'Helvetica Now Display, Ultra-Bold';font-variant-ligatures:normal;font-variant-caps:normal;font-variant-numeric:normal;font-feature-settings:normal;text-align:center;letter-spacing:0px;word-spacing:0px;writing-mode:lr-tb;text-anchor:middle;fill:#ffffff;fill-opacity:1;stroke:none;stroke-width:0.21596543px;stroke-linecap:butt;stroke-linejoin:miter;stroke-opacity:1"
         d="M 101.34417,14.125715 H 87.266411 V 0.73707242 h -8.31867 V 35.783782 h 8.31867 V 21.607589 h 14.077759 v 14.176193 h 8.31867 V 0.73707242 h -8.31867 z" />
      <path
         inkscape:connector-curvature="0"
         id="path1604"
         style="font-style:normal;font-variant:normal;font-weight:800;font-stretch:normal;font-size:12.27705574px;line-height:16.44229889px;font-family:'Helvetica Now Display';-inkscape-font-specification:'Helvetica Now Display, Ultra-Bold';font-variant-ligatures:normal;font-variant-caps:normal;font-variant-numeric:normal;font-feature-settings:normal;text-align:center;letter-spacing:0px;word-spacing:0px;writing-mode:lr-tb;text-anchor:middle;fill:#ffffff;fill-opacity:1;stroke:none;stroke-width:0.21596543px;stroke-linecap:butt;stroke-linejoin:miter;stroke-opacity:1"
         d="m 139.68884,23.82263 c 0,-8.121806 -4.67618,-14.0285291 -13.09331,-14.0285291 -8.02333,0 -13.09331,5.3160681 -13.09331,13.2901681 0,7.974141 5.21764,13.290209 13.19178,13.290209 6.15286,0 11.02593,-3.199496 12.40414,-8.515562 h -7.28497 c -0.93526,1.919672 -2.6088,2.854932 -5.11917,2.854932 -3.10107,0 -5.26687,-1.821285 -5.80834,-5.365302 h 18.80318 z M 126.4971,15.454731 c 3.10103,0 5.11917,1.870478 5.66064,5.02074 H 120.9349 c 0.54146,-3.34716 2.41194,-5.02074 5.5622,-5.02074 z" />
      <path
         inkscape:connector-curvature="0"
         id="path1606"
         style="font-style:normal;font-variant:normal;font-weight:800;font-stretch:normal;font-size:12.27705574px;line-height:16.44229889px;font-family:'Helvetica Now Display';-inkscape-font-specification:'Helvetica Now Display, Ultra-Bold';font-variant-ligatures:normal;font-variant-caps:normal;font-variant-numeric:normal;font-feature-settings:normal;text-align:center;letter-spacing:0px;word-spacing:0px;writing-mode:lr-tb;text-anchor:middle;fill:#ffffff;fill-opacity:1;stroke:none;stroke-width:0.21596543px;stroke-linecap:butt;stroke-linejoin:miter;stroke-opacity:1"
         d="m 157.85213,14.027244 c -1.72281,5.85753 -3.10107,11.173638 -4.23319,15.948244 -1.13211,-4.676177 -2.5596,-10.041479 -4.33166,-15.997437 l -1.13211,-3.593294 h -8.26942 l 7.28496,20.624419 c 0.78756,2.215041 1.18136,3.888621 1.18136,4.92227 0,2.362705 -1.27979,3.544058 -3.83939,3.544058 h -2.46113 v 5.906764 c 1.03369,0.04932 2.06734,0.09864 3.00259,0.09864 7.08812,0 10.28762,-1.968908 12.65032,-8.712461 l 9.20465,-26.383479 h -7.92487 z" />
      <path
         inkscape:connector-curvature="0"
         id="path1608"
         style="font-style:normal;font-variant:normal;font-weight:800;font-stretch:normal;font-size:12.27705574px;line-height:16.44229889px;font-family:'Helvetica Now Display';-inkscape-font-specification:'Helvetica Now Display, Ultra-Bold';font-variant-ligatures:normal;font-variant-caps:normal;font-variant-numeric:normal;font-feature-settings:normal;text-align:center;letter-spacing:0px;word-spacing:0px;writing-mode:lr-tb;text-anchor:middle;fill:#ffffff;fill-opacity:1;stroke:none;stroke-width:0.21596543px;stroke-linecap:butt;stroke-linejoin:miter;stroke-opacity:1"
         d="m 198.31337,13.731916 c -1.67358,-2.608798 -4.23319,-3.9378151 -7.62954,-3.9378151 -7.33426,0 -11.07517,5.9067231 -11.07517,12.6995121 0,6.841983 3.88863,12.748748 11.22284,12.748748 3.19949,0 5.66063,-1.181354 7.28497,-3.593293 v 3.642486 c 0,3.150262 -1.77201,4.971505 -5.1684,4.971505 -3.05184,0 -4.67618,-1.181312 -4.87307,-3.544018 h -7.58031 c 0.3444,5.66063 4.62694,9.303118 12.30572,9.303118 8.26942,0 12.99483,-4.134714 12.99483,-11.025933 V 10.384757 h -7.48187 z m -5.51296,15.357547 c -3.3964,0 -5.41455,-2.313471 -5.41455,-6.49742 0,-4.18395 2.01815,-6.645084 5.41455,-6.645084 3.49481,0 5.46372,2.264235 5.46372,6.546654 0,4.282379 -1.96891,6.59585 -5.46372,6.59585 z" />
      <path
         inkscape:connector-curvature="0"
         id="path1610"
         style="font-style:normal;font-variant:normal;font-weight:800;font-stretch:normal;font-size:12.27705574px;line-height:16.44229889px;font-family:'Helvetica Now Display';-inkscape-font-specification:'Helvetica Now Display, Ultra-Bold';font-variant-ligatures:normal;font-variant-caps:normal;font-variant-numeric:normal;font-feature-settings:normal;text-align:center;letter-spacing:0px;word-spacing:0px;writing-mode:lr-tb;text-anchor:middle;fill:#ffffff;fill-opacity:1;stroke:none;stroke-width:0.21596543px;stroke-linecap:butt;stroke-linejoin:miter;stroke-opacity:1"
         d="m 226.81341,24.560951 c 0,3.494822 -2.215,5.266873 -4.82384,5.266873 -2.70726,0 -4.08548,-1.427487 -4.08548,-4.331614 V 10.384757 h -7.67876 v 16.637369 c 0,6.103622 3.54402,9.352352 8.81089,9.352352 3.34715,0 6.00519,-1.378252 7.9741,-4.18395 v 3.593254 h 7.48187 V 10.384757 h -7.67878 z" />
      <path
         inkscape:connector-curvature="0"
         id="path1612"
         style="font-style:normal;font-variant:normal;font-weight:800;font-stretch:normal;font-size:12.27705574px;line-height:16.44229889px;font-family:'Helvetica Now Display';-inkscape-font-specification:'Helvetica Now Display, Ultra-Bold';font-variant-ligatures:normal;font-variant-caps:normal;font-variant-numeric:normal;font-feature-settings:normal;text-align:center;letter-spacing:0px;word-spacing:0px;writing-mode:lr-tb;text-anchor:middle;fill:#ffffff;fill-opacity:1;stroke:none;stroke-width:0.21596543px;stroke-linecap:butt;stroke-linejoin:miter;stroke-opacity:1"
         d="m 254.47676,14.027244 c -1.72282,5.85753 -3.10103,11.173638 -4.23319,15.948244 -1.13211,-4.676177 -2.55956,-10.041479 -4.33161,-15.997437 l -1.13211,-3.593294 h -8.26948 l 7.28502,20.624419 c 0.78755,2.215041 1.18135,3.888621 1.18135,4.92227 0,2.362705 -1.27979,3.544058 -3.83938,3.544058 h -2.46114 v 5.906764 c 1.03365,0.04932 2.06734,0.09864 3.0026,0.09864 7.08807,0 10.28756,-1.968908 12.65028,-8.712461 l 9.20468,-26.383479 h -7.92491 z" />
      <path
         inkscape:connector-curvature="0"
         id="path1614"
         style="font-style:normal;font-variant:normal;font-weight:800;font-stretch:normal;font-size:12.27705574px;line-height:16.44229889px;font-family:'Helvetica Now Display';-inkscape-font-specification:'Helvetica Now Display, Ultra-Bold';font-variant-ligatures:normal;font-variant-caps:normal;font-variant-numeric:normal;font-feature-settings:normal;text-align:center;letter-spacing:0px;word-spacing:0px;writing-mode:lr-tb;text-anchor:middle;fill:#ffffff;fill-opacity:1;stroke:none;stroke-width:0.21596543px;stroke-linecap:butt;stroke-linejoin:miter;stroke-opacity:1"
         d="m 275.9872,36.522142 c 7.67878,0 12.10881,-2.953361 12.10881,-8.220234 0,-4.479278 -2.85492,-6.940413 -8.90932,-7.875673 l -3.79019,-0.541461 c -2.55956,-0.393718 -3.69172,-1.132118 -3.69172,-2.559565 0,-1.624385 1.27982,-2.411939 3.88862,-2.411939 2.95336,0 4.62694,0.984454 4.67618,3.593293 h 7.13731 c -0.29549,-5.808335 -4.23314,-8.7124621 -11.81349,-8.7124621 -7.33421,0 -11.41972,2.9041271 -11.41972,8.0233361 0,4.282378 2.85493,6.891217 8.56479,7.777202 l 3.29796,0.541462 c 3.34713,0.541461 4.38082,1.230587 4.38082,2.805698 0,1.624345 -1.42745,2.461135 -4.28239,2.461135 -3.19949,0 -4.62693,-0.93522 -4.87307,-3.691682 h -7.48187 c 0.44299,6.251286 4.28237,8.81089 12.20728,8.81089 z" />
      <path
         inkscape:connector-curvature="0"
         id="path1616"
         style="font-style:normal;font-variant:normal;font-weight:800;font-stretch:normal;font-size:12.27705574px;line-height:16.44229889px;font-family:'Helvetica Now Display';-inkscape-font-specification:'Helvetica Now Display, Ultra-Bold';font-variant-ligatures:normal;font-variant-caps:normal;font-variant-numeric:normal;font-feature-settings:normal;text-align:center;letter-spacing:0px;word-spacing:0px;writing-mode:lr-tb;text-anchor:middle;fill:#ffffff;fill-opacity:1;stroke:none;stroke-width:0.21596543px;stroke-linecap:butt;stroke-linejoin:miter;stroke-opacity:1"
         d="m 290.3603,35.783782 h 3.69172 v 0.83679 c 0,2.165806 -0.83679,3.248729 -2.55956,3.297965 h -1.13216 v 4.233144 l 1.08292,-0.04932 c 5.06997,-0.04932 7.58034,-2.608798 7.58034,-7.678772 V 27.31737 h -8.66326 z" />
      <g
         transform="matrix(4.0093424,0,0,4.0093424,-237.96375,-177.23456)"
         aria-label="have you hugged a"
         style="font-style:normal;font-variant:normal;font-weight:800;font-stretch:normal;font-size:6.33686686px;line-height:8.48677921px;font-family:'Helvetica Now Display';-inkscape-font-specification:'Helvetica Now Display, Ultra-Bold';font-variant-ligatures:normal;font-variant-caps:normal;font-variant-numeric:normal;font-feature-settings:normal;text-align:center;letter-spacing:0px;word-spacing:0px;writing-mode:lr-tb;text-anchor:middle;fill:#ffffff;fill-opacity:1;stroke:none;stroke-width:0.05386555px;stroke-linecap:butt;stroke-linejoin:miter;stroke-opacity:1"
         id="text4772">
        <path
           d="m 81.037638,57.925302 c -0.418233,0 -0.754087,0.171095 -1.001225,0.506949 v -1.672932 h -0.988551 v 4.511849 h 0.988551 V 59.44615 c 0,-0.449917 0.285159,-0.678045 0.621013,-0.678045 0.348528,0 0.52596,0.183769 0.52596,0.557645 v 1.945418 h 0.988551 v -2.141861 c 0,-0.785772 -0.456254,-1.204005 -1.134299,-1.204005 z"
           style="font-style:normal;font-variant:normal;font-weight:800;font-stretch:normal;font-size:6.33686686px;font-family:'Helvetica Now Display';-inkscape-font-specification:'Helvetica Now Display, Ultra-Bold';font-variant-ligatures:normal;font-variant-caps:normal;font-variant-numeric:normal;font-feature-settings:normal;text-align:center;writing-mode:lr-tb;text-anchor:middle;fill:#ffffff;stroke-width:0.05386555px"
           id="path1619"
           inkscape:connector-curvature="0" />
        <path
           d="m 85.891679,61.271168 c -0.08872,-0.126738 -0.133074,-0.329517 -0.133074,-0.602003 v -1.736301 c 0,-0.671708 -0.487938,-1.007562 -1.457479,-1.007562 -0.988551,0 -1.508174,0.380212 -1.565206,1.134299 h 0.982214 c 0.03168,-0.329517 0.177432,-0.430907 0.576655,-0.430907 0.335854,0 0.500613,0.107727 0.500613,0.329517 0,0.20278 -0.139412,0.291496 -0.424571,0.323181 l -0.513286,0.04436 c -0.906172,0.07604 -1.280047,0.430907 -1.280047,1.020235 0,0.633687 0.481602,1.001225 1.191331,1.001225 0.475265,0 0.823793,-0.145748 1.045583,-0.443581 0.0063,0.158422 0.03802,0.278823 0.08238,0.367539 z m -1.825017,-0.589329 c -0.30417,0 -0.481602,-0.145748 -0.481602,-0.373875 0,-0.228127 0.158422,-0.361201 0.475265,-0.392886 l 0.405559,-0.04436 c 0.158422,-0.01901 0.272486,-0.06337 0.329518,-0.126737 v 0.240801 c 0,0.481602 -0.30417,0.697055 -0.72874,0.697055 z"
           style="font-style:normal;font-variant:normal;font-weight:800;font-stretch:normal;font-size:6.33686686px;font-family:'Helvetica Now Display';-inkscape-font-specification:'Helvetica Now Display, Ultra-Bold';font-variant-ligatures:normal;font-variant-caps:normal;font-variant-numeric:normal;font-feature-settings:normal;text-align:center;writing-mode:lr-tb;text-anchor:middle;fill:#ffffff;stroke-width:0.05386555px"
           id="path1621"
           inkscape:connector-curvature="0" />
        <path
           d="m 88.172954,58.49562 c -0.310506,1.089941 -0.487938,1.736302 -0.54497,1.932744 -0.05703,-0.196442 -0.234464,-0.842803 -0.544971,-1.932744 l -0.171095,-0.494276 h -1.064594 l 1.165984,3.269824 h 1.178657 l 1.165983,-3.269824 H 88.34405 Z"
           style="font-style:normal;font-variant:normal;font-weight:800;font-stretch:normal;font-size:6.33686686px;font-family:'Helvetica Now Display';-inkscape-font-specification:'Helvetica Now Display, Ultra-Bold';font-variant-ligatures:normal;font-variant-caps:normal;font-variant-numeric:normal;font-feature-settings:normal;text-align:center;writing-mode:lr-tb;text-anchor:middle;fill:#ffffff;stroke-width:0.05386555px"
           id="path1623"
           inkscape:connector-curvature="0" />
        <path
           d="m 92.748162,59.731309 c 0,-1.045583 -0.602002,-1.806007 -1.685607,-1.806007 -1.032909,0 -1.685606,0.684382 -1.685606,1.710954 0,1.026573 0.671708,1.710954 1.69828,1.710954 0.792109,0 1.419458,-0.411896 1.596891,-1.096278 h -0.937857 c -0.1204,0.247138 -0.335854,0.367538 -0.659034,0.367538 -0.399222,0 -0.678045,-0.234464 -0.74775,-0.690718 h 2.420683 z m -1.69828,-1.077267 c 0.399222,0 0.659034,0.240801 0.728739,0.64636 h -1.444805 c 0.0697,-0.430907 0.310506,-0.64636 0.716066,-0.64636 z"
           style="font-style:normal;font-variant:normal;font-weight:800;font-stretch:normal;font-size:6.33686686px;font-family:'Helvetica Now Display';-inkscape-font-specification:'Helvetica Now Display, Ultra-Bold';font-variant-ligatures:normal;font-variant-caps:normal;font-variant-numeric:normal;font-feature-settings:normal;text-align:center;writing-mode:lr-tb;text-anchor:middle;fill:#ffffff;stroke-width:0.05386555px"
           id="path1625"
           inkscape:connector-curvature="0" />
        <path
           d="m 96.721374,58.470273 c -0.22179,0.754087 -0.399223,1.438468 -0.544971,2.053144 -0.145748,-0.602002 -0.329517,-1.29272 -0.557644,-2.059481 l -0.145748,-0.462592 h -1.064593 l 0.937856,2.655148 c 0.10139,0.285159 0.152085,0.500612 0.152085,0.633686 0,0.30417 -0.164759,0.456255 -0.494276,0.456255 H 94.68724 v 0.760424 c 0.133074,0.0063 0.266148,0.01267 0.386549,0.01267 0.912508,0 1.324405,-0.253475 1.628574,-1.121626 l 1.184994,-3.396561 h -1.020235 z"
           style="font-style:normal;font-variant:normal;font-weight:800;font-stretch:normal;font-size:6.33686686px;font-family:'Helvetica Now Display';-inkscape-font-specification:'Helvetica Now Display, Ultra-Bold';font-variant-ligatures:normal;font-variant-caps:normal;font-variant-numeric:normal;font-feature-settings:normal;text-align:center;writing-mode:lr-tb;text-anchor:middle;fill:#ffffff;stroke-width:0.05386555px"
           id="path1627"
           inkscape:connector-curvature="0" />
        <path
           d="m 99.617322,61.34721 c 1.045578,0 1.710958,-0.671708 1.710958,-1.710954 0,-1.05192 -0.65904,-1.710954 -1.710958,-1.710954 -1.045583,0 -1.717291,0.659034 -1.717291,1.710954 0,1.039246 0.678044,1.710954 1.717291,1.710954 z m 0,-0.792108 c -0.456255,0 -0.716066,-0.310507 -0.716066,-0.918846 0,-0.608339 0.259811,-0.918846 0.716066,-0.918846 0.449918,0 0.709728,0.310507 0.709728,0.918846 0,0.608339 -0.25981,0.918846 -0.709728,0.918846 z"
           style="font-style:normal;font-variant:normal;font-weight:800;font-stretch:normal;font-size:6.33686686px;font-family:'Helvetica Now Display';-inkscape-font-specification:'Helvetica Now Display, Ultra-Bold';font-variant-ligatures:normal;font-variant-caps:normal;font-variant-numeric:normal;font-feature-settings:normal;text-align:center;writing-mode:lr-tb;text-anchor:middle;fill:#ffffff;stroke-width:0.05386555px"
           id="path1629"
           inkscape:connector-curvature="0" />
        <path
           d="m 103.83134,59.826362 c 0,0.449918 -0.28515,0.678045 -0.62101,0.678045 -0.34853,0 -0.52596,-0.183769 -0.52596,-0.557644 v -1.945419 h -0.98855 v 2.141861 c 0,0.785772 0.45626,1.204005 1.1343,1.204005 0.43091,0 0.7731,-0.177432 1.02657,-0.538634 v 0.462592 h 0.96321 v -3.269824 h -0.98856 z"
           style="font-style:normal;font-variant:normal;font-weight:800;font-stretch:normal;font-size:6.33686686px;font-family:'Helvetica Now Display';-inkscape-font-specification:'Helvetica Now Display, Ultra-Bold';font-variant-ligatures:normal;font-variant-caps:normal;font-variant-numeric:normal;font-feature-settings:normal;text-align:center;writing-mode:lr-tb;text-anchor:middle;fill:#ffffff;stroke-width:0.05386555px"
           id="path1631"
           inkscape:connector-curvature="0" />
        <path
           d="m 108.85648,57.925302 c -0.41823,0 -0.75409,0.171095 -1.00122,0.506949 v -1.672932 h -0.98856 v 4.511849 h 0.98856 V 59.44615 c 0,-0.449917 0.28515,-0.678045 0.62101,-0.678045 0.34853,0 0.52596,0.183769 0.52596,0.557645 v 1.945418 h 0.98855 v -2.141861 c 0,-0.785772 -0.45626,-1.204005 -1.1343,-1.204005 z"
           style="font-style:normal;font-variant:normal;font-weight:800;font-stretch:normal;font-size:6.33686686px;font-family:'Helvetica Now Display';-inkscape-font-specification:'Helvetica Now Display, Ultra-Bold';font-variant-ligatures:normal;font-variant-caps:normal;font-variant-numeric:normal;font-feature-settings:normal;text-align:center;writing-mode:lr-tb;text-anchor:middle;fill:#ffffff;stroke-width:0.05386555px"
           id="path1633"
           inkscape:connector-curvature="0" />
        <path
           d="m 112.61424,59.826362 c 0,0.449918 -0.28516,0.678045 -0.62101,0.678045 -0.34853,0 -0.52596,-0.183769 -0.52596,-0.557644 v -1.945419 h -0.98855 v 2.141861 c 0,0.785772 0.45625,1.204005 1.1343,1.204005 0.4309,0 0.77309,-0.177432 1.02657,-0.538634 v 0.462592 h 0.9632 v -3.269824 h -0.98855 z"
           style="font-style:normal;font-variant:normal;font-weight:800;font-stretch:normal;font-size:6.33686686px;font-family:'Helvetica Now Display';-inkscape-font-specification:'Helvetica Now Display, Ultra-Bold';font-variant-ligatures:normal;font-variant-caps:normal;font-variant-numeric:normal;font-feature-settings:normal;text-align:center;writing-mode:lr-tb;text-anchor:middle;fill:#ffffff;stroke-width:0.05386555px"
           id="path1635"
           inkscape:connector-curvature="0" />
        <path
           d="m 116.44805,58.432251 c -0.21546,-0.335854 -0.54498,-0.506949 -0.98222,-0.506949 -0.94419,0 -1.42579,0.760424 -1.42579,1.634912 0,0.880824 0.50061,1.641248 1.4448,1.641248 0.4119,0 0.72874,-0.152085 0.93786,-0.462591 v 0.468928 c 0,0.40556 -0.22813,0.640024 -0.66537,0.640024 -0.39289,0 -0.60201,-0.152085 -0.62735,-0.456255 h -0.97588 c 0.0444,0.72874 0.59566,1.197668 1.58422,1.197668 1.06459,0 1.67293,-0.532297 1.67293,-1.419458 v -3.168434 h -0.9632 z m -0.70973,1.977103 c -0.43725,0 -0.69706,-0.297833 -0.69706,-0.836467 0,-0.538633 0.25981,-0.855477 0.69706,-0.855477 0.44991,0 0.70339,0.291496 0.70339,0.842804 0,0.551307 -0.25348,0.84914 -0.70339,0.84914 z"
           style="font-style:normal;font-variant:normal;font-weight:800;font-stretch:normal;font-size:6.33686686px;font-family:'Helvetica Now Display';-inkscape-font-specification:'Helvetica Now Display, Ultra-Bold';font-variant-ligatures:normal;font-variant-caps:normal;font-variant-numeric:normal;font-feature-settings:normal;text-align:center;writing-mode:lr-tb;text-anchor:middle;fill:#ffffff;stroke-width:0.05386555px"
           id="path1637"
           inkscape:connector-curvature="0" />
        <path
           d="m 120.2565,58.432251 c -0.21545,-0.335854 -0.54497,-0.506949 -0.98221,-0.506949 -0.9442,0 -1.4258,0.760424 -1.4258,1.634912 0,0.880824 0.50061,1.641248 1.44481,1.641248 0.41189,0 0.72874,-0.152085 0.93785,-0.462591 v 0.468928 c 0,0.40556 -0.22812,0.640024 -0.66537,0.640024 -0.39288,0 -0.602,-0.152085 -0.62735,-0.456255 h -0.97587 c 0.0444,0.72874 0.59566,1.197668 1.58421,1.197668 1.0646,0 1.67294,-0.532297 1.67294,-1.419458 v -3.168434 h -0.96321 z m -0.70973,1.977103 c -0.43724,0 -0.69705,-0.297833 -0.69705,-0.836467 0,-0.538633 0.25981,-0.855477 0.69705,-0.855477 0.44992,0 0.70339,0.291496 0.70339,0.842804 0,0.551307 -0.25347,0.84914 -0.70339,0.84914 z"
           style="font-style:normal;font-variant:normal;font-weight:800;font-stretch:normal;font-size:6.33686686px;font-family:'Helvetica Now Display';-inkscape-font-specification:'Helvetica Now Display, Ultra-Bold';font-variant-ligatures:normal;font-variant-caps:normal;font-variant-numeric:normal;font-feature-settings:normal;text-align:center;writing-mode:lr-tb;text-anchor:middle;fill:#ffffff;stroke-width:0.05386555px"
           id="path1639"
           inkscape:connector-curvature="0" />
        <path
           d="m 125.02816,59.731309 c 0,-1.045583 -0.602,-1.806007 -1.6856,-1.806007 -1.03291,0 -1.68561,0.684382 -1.68561,1.710954 0,1.026573 0.67171,1.710954 1.69828,1.710954 0.79211,0 1.41946,-0.411896 1.59689,-1.096278 h -0.93786 c -0.1204,0.247138 -0.33585,0.367538 -0.65903,0.367538 -0.39922,0 -0.67805,-0.234464 -0.74775,-0.690718 h 2.42068 z m -1.69828,-1.077267 c 0.39922,0 0.65904,0.240801 0.72874,0.64636 h -1.4448 c 0.0697,-0.430907 0.3105,-0.64636 0.71606,-0.64636 z"
           style="font-style:normal;font-variant:normal;font-weight:800;font-stretch:normal;font-size:6.33686686px;font-family:'Helvetica Now Display';-inkscape-font-specification:'Helvetica Now Display, Ultra-Bold';font-variant-ligatures:normal;font-variant-caps:normal;font-variant-numeric:normal;font-feature-settings:normal;text-align:center;writing-mode:lr-tb;text-anchor:middle;fill:#ffffff;stroke-width:0.05386555px"
           id="path1641"
           inkscape:connector-curvature="0" />
        <path
           d="m 127.74034,58.39423 c -0.22179,-0.310506 -0.54497,-0.468928 -0.95687,-0.468928 -0.99489,0 -1.4258,0.811119 -1.4258,1.710954 0,0.899835 0.43091,1.710954 1.4258,1.710954 0.43091,0 0.76042,-0.164758 0.98221,-0.500612 v 0.42457 h 0.96321 v -4.511849 h -0.98855 z m -0.68439,2.160872 c -0.46259,0 -0.69705,-0.297833 -0.69705,-0.893498 0,-0.614677 0.25981,-0.944194 0.69705,-0.944194 0.46893,0 0.7034,0.30417 0.7034,0.918846 0,0.614676 -0.23447,0.918846 -0.7034,0.918846 z"
           style="font-style:normal;font-variant:normal;font-weight:800;font-stretch:normal;font-size:6.33686686px;font-family:'Helvetica Now Display';-inkscape-font-specification:'Helvetica Now Display, Ultra-Bold';font-variant-ligatures:normal;font-variant-caps:normal;font-variant-numeric:normal;font-feature-settings:normal;text-align:center;writing-mode:lr-tb;text-anchor:middle;fill:#ffffff;stroke-width:0.05386555px"
           id="path1643"
           inkscape:connector-curvature="0" />
        <path
           d="m 133.92512,61.271168 c -0.0887,-0.126738 -0.13308,-0.329517 -0.13308,-0.602003 v -1.736301 c 0,-0.671708 -0.48794,-1.007562 -1.45748,-1.007562 -0.98855,0 -1.50817,0.380212 -1.5652,1.134299 h 0.98221 c 0.0317,-0.329517 0.17743,-0.430907 0.57666,-0.430907 0.33585,0 0.50061,0.107727 0.50061,0.329517 0,0.20278 -0.13941,0.291496 -0.42457,0.323181 l -0.51329,0.04436 c -0.90617,0.07604 -1.28004,0.430907 -1.28004,1.020235 0,0.633687 0.4816,1.001225 1.19133,1.001225 0.47526,0 0.82379,-0.145748 1.04558,-0.443581 0.006,0.158422 0.038,0.278823 0.0824,0.367539 z m -1.82502,-0.589329 c -0.30417,0 -0.4816,-0.145748 -0.4816,-0.373875 0,-0.228127 0.15842,-0.361201 0.47526,-0.392886 l 0.40556,-0.04436 c 0.15842,-0.01901 0.27249,-0.06337 0.32952,-0.126737 v 0.240801 c 0,0.481602 -0.30417,0.697055 -0.72874,0.697055 z"
           style="font-style:normal;font-variant:normal;font-weight:800;font-stretch:normal;font-size:6.33686686px;font-family:'Helvetica Now Display';-inkscape-font-specification:'Helvetica Now Display, Ultra-Bold';font-variant-ligatures:normal;font-variant-caps:normal;font-variant-numeric:normal;font-feature-settings:normal;text-align:center;writing-mode:lr-tb;text-anchor:middle;fill:#ffffff;stroke-width:0.05386555px"
           id="path1645"
           inkscape:connector-curvature="0" />
      </g>
      <g
         transform="matrix(4.0093424,0,0,4.0093424,-237.96375,-178.18173)"
         aria-label="Software"
         style="font-style:normal;font-variant:normal;font-weight:800;font-stretch:normal;font-size:12.8316555px;line-height:17.18505859px;font-family:'Helvetica Now Display';-inkscape-font-specification:'Helvetica Now Display, Ultra-Bold';font-variant-ligatures:normal;font-variant-caps:normal;font-variant-numeric:normal;font-feature-settings:normal;text-align:center;letter-spacing:0px;word-spacing:0px;writing-mode:lr-tb;text-anchor:middle;fill:#ffffff;fill-opacity:1;stroke:none;stroke-width:0.05386555px;stroke-linecap:butt;stroke-linejoin:miter;stroke-opacity:1"
         id="text4776">
        <path
           d="m 83.050653,72.88047 c 2.399519,0 3.87516,-1.000869 3.87516,-2.887123 0,-1.55263 -0.949543,-2.386688 -3.156588,-2.784469 L 82.999326,67.06773 c -1.142017,-0.218138 -1.55263,-0.487603 -1.55263,-1.116354 0,-0.61592 0.461939,-0.923879 1.39865,-0.923879 1.180513,0 1.668115,0.410613 1.719442,1.283165 h 2.053065 c -0.08982,-1.899085 -1.360156,-2.976944 -3.811002,-2.976944 -2.309698,0 -3.5672,1.077859 -3.5672,2.707479 0,1.552631 1.013701,2.515005 3.053934,2.86146 l 0.744236,0.141148 c 1.270334,0.243801 1.642452,0.474771 1.642452,1.09069 0,0.705742 -0.513266,1.052196 -1.55263,1.052196 -1.270334,0 -1.963244,-0.346454 -1.976075,-1.514135 h -2.104392 c 0.01283,2.001738 1.437146,3.207914 4.003477,3.207914 z"
           style="font-style:normal;font-variant:normal;font-weight:800;font-stretch:normal;font-size:12.8316555px;font-family:'Helvetica Now Display';-inkscape-font-specification:'Helvetica Now Display, Ultra-Bold';font-variant-ligatures:normal;font-variant-caps:normal;font-variant-numeric:normal;font-feature-settings:normal;text-align:center;writing-mode:lr-tb;text-anchor:middle;fill:#ffffff;stroke-width:0.05386555px"
           id="path1648"
           inkscape:connector-curvature="0" />
        <path
           d="m 91.173074,72.829143 c 2.117223,0 3.464547,-1.360155 3.464547,-3.464547 0,-2.130055 -1.334492,-3.464547 -3.464547,-3.464547 -2.117223,0 -3.477378,1.334492 -3.477378,3.464547 0,2.104392 1.372987,3.464547 3.477378,3.464547 z m 0,-1.603957 c -0.923879,0 -1.449977,-0.628751 -1.449977,-1.86059 0,-1.231839 0.526098,-1.86059 1.449977,-1.86059 0.911048,0 1.437146,0.628751 1.437146,1.86059 0,1.231839 -0.526098,1.86059 -1.437146,1.86059 z"
           style="font-style:normal;font-variant:normal;font-weight:800;font-stretch:normal;font-size:12.8316555px;font-family:'Helvetica Now Display';-inkscape-font-specification:'Helvetica Now Display, Ultra-Bold';font-variant-ligatures:normal;font-variant-caps:normal;font-variant-numeric:normal;font-feature-settings:normal;text-align:center;writing-mode:lr-tb;text-anchor:middle;fill:#ffffff;stroke-width:0.05386555px"
           id="path1650"
           inkscape:connector-curvature="0" />
        <path
           d="m 99.154367,65.027497 v -1.488472 c -0.372118,-0.0385 -0.692909,-0.05133 -0.949542,-0.05133 -1.655284,0 -2.386688,0.898216 -2.386688,2.181381 v 0.38495 h -0.988038 v 1.462809 h 0.988038 v 5.158325 h 2.001738 v -5.158325 h 1.308829 v -1.462809 h -1.308829 v -0.320791 c 0,-0.474772 0.269465,-0.705741 0.795563,-0.705741 z"
           style="font-style:normal;font-variant:normal;font-weight:800;font-stretch:normal;font-size:12.8316555px;font-family:'Helvetica Now Display';-inkscape-font-specification:'Helvetica Now Display, Ultra-Bold';font-variant-ligatures:normal;font-variant-caps:normal;font-variant-numeric:normal;font-feature-settings:normal;text-align:center;writing-mode:lr-tb;text-anchor:middle;fill:#ffffff;stroke-width:0.05386555px"
           id="path1652"
           inkscape:connector-curvature="0" />
        <path
           d="m 103.82508,66.054029 h -1.27033 v -1.963243 h -2.00174 v 1.963243 h -0.988036 v 1.462809 h 0.988036 v 3.310567 c 0,1.347324 0.69291,1.899085 2.34819,1.899085 0.34646,0 0.65442,-0.01283 0.92388,-0.05133 v -1.488472 h -0.51326 c -0.55176,0 -0.75707,-0.115485 -0.75707,-0.577424 v -3.092429 h 1.27033 z"
           style="font-style:normal;font-variant:normal;font-weight:800;font-stretch:normal;font-size:12.8316555px;font-family:'Helvetica Now Display';-inkscape-font-specification:'Helvetica Now Display, Ultra-Bold';font-variant-ligatures:normal;font-variant-caps:normal;font-variant-numeric:normal;font-feature-settings:normal;text-align:center;writing-mode:lr-tb;text-anchor:middle;fill:#ffffff;stroke-width:0.05386555px"
           id="path1654"
           inkscape:connector-curvature="0" />
        <path
           d="m 112.31964,68.184084 c -0.21813,0.744236 -0.42344,1.488472 -0.61592,2.232708 -0.16681,-0.705741 -0.35928,-1.449977 -0.57742,-2.24554 l -0.60309,-2.117223 h -1.84776 l -0.60308,2.117223 c -0.21814,0.795563 -0.41062,1.539799 -0.57743,2.24554 -0.19247,-0.744236 -0.39778,-1.488472 -0.61592,-2.232708 l -0.61592,-2.130055 h -2.15572 l 2.16855,6.621134 h 2.1044 l 0.7314,-2.489341 c 0.20531,-0.744236 0.35929,-1.334492 0.47477,-1.7836 0.16681,0.654414 0.33362,1.244671 0.50044,1.7836 l 0.7314,2.489341 h 2.10439 l 2.15572,-6.621134 h -2.14289 z"
           style="font-style:normal;font-variant:normal;font-weight:800;font-stretch:normal;font-size:12.8316555px;font-family:'Helvetica Now Display';-inkscape-font-specification:'Helvetica Now Display, Ultra-Bold';font-variant-ligatures:normal;font-variant-caps:normal;font-variant-numeric:normal;font-feature-settings:normal;text-align:center;writing-mode:lr-tb;text-anchor:middle;fill:#ffffff;stroke-width:0.05386555px"
           id="path1656"
           inkscape:connector-curvature="0" />
        <path
           d="m 121.73808,72.675163 c -0.17964,-0.256633 -0.26946,-0.667246 -0.26946,-1.219007 v -3.515874 c 0,-1.360155 -0.98804,-2.040233 -2.95128,-2.040233 -2.00174,0 -3.05394,0.769899 -3.16942,2.296866 h 1.9889 c 0.0642,-0.667246 0.35929,-0.872552 1.16768,-0.872552 0.68008,0 1.01371,0.218138 1.01371,0.667246 0,0.410613 -0.2823,0.590256 -0.85973,0.654414 l -1.03936,0.08982 c -1.83493,0.15398 -2.59199,0.872553 -2.59199,2.065897 0,1.283165 0.9752,2.027401 2.41235,2.027401 0.96237,0 1.66811,-0.295128 2.11722,-0.898216 0.0128,0.320792 0.077,0.564593 0.16681,0.744236 z m -3.69551,-1.193344 c -0.61592,0 -0.97521,-0.295128 -0.97521,-0.757067 0,-0.46194 0.32079,-0.731405 0.96237,-0.795563 l 0.82123,-0.08982 c 0.32079,-0.03849 0.55176,-0.128316 0.66725,-0.256633 v 0.487603 c 0,0.975206 -0.61592,1.411482 -1.47564,1.411482 z"
           style="font-style:normal;font-variant:normal;font-weight:800;font-stretch:normal;font-size:12.8316555px;font-family:'Helvetica Now Display';-inkscape-font-specification:'Helvetica Now Display, Ultra-Bold';font-variant-ligatures:normal;font-variant-caps:normal;font-variant-numeric:normal;font-feature-settings:normal;text-align:center;writing-mode:lr-tb;text-anchor:middle;fill:#ffffff;stroke-width:0.05386555px"
           id="path1658"
           inkscape:connector-curvature="0" />
        <path
           d="m 126.37031,65.951376 c -0.94954,0 -1.5783,0.449108 -1.88626,1.334492 v -1.231839 h -1.95041 v 6.621134 h 2.00174 v -3.079597 c 0,-1.193344 0.59026,-1.796432 1.75794,-1.796432 h 0.51326 v -1.822095 c -0.19247,-0.01283 -0.33362,-0.02566 -0.43627,-0.02566 z"
           style="font-style:normal;font-variant:normal;font-weight:800;font-stretch:normal;font-size:12.8316555px;font-family:'Helvetica Now Display';-inkscape-font-specification:'Helvetica Now Display, Ultra-Bold';font-variant-ligatures:normal;font-variant-caps:normal;font-variant-numeric:normal;font-feature-settings:normal;text-align:center;writing-mode:lr-tb;text-anchor:middle;fill:#ffffff;stroke-width:0.05386555px"
           id="path1660"
           inkscape:connector-curvature="0" />
        <path
           d="m 133.92816,69.557071 c 0,-2.117223 -1.21901,-3.657022 -3.41322,-3.657022 -2.09156,0 -3.41322,1.385819 -3.41322,3.464547 0,2.078728 1.36016,3.464547 3.43889,3.464547 1.60395,0 2.87429,-0.834057 3.23357,-2.219876 h -1.89908 c -0.2438,0.500434 -0.68008,0.744236 -1.33449,0.744236 -0.8084,0 -1.37299,-0.474772 -1.51414,-1.398651 h 4.90169 z m -3.43888,-2.181381 c 0.80839,0 1.33449,0.487602 1.47564,1.308828 h -2.92562 c 0.14115,-0.872552 0.62875,-1.308828 1.44998,-1.308828 z"
           style="font-style:normal;font-variant:normal;font-weight:800;font-stretch:normal;font-size:12.8316555px;font-family:'Helvetica Now Display';-inkscape-font-specification:'Helvetica Now Display, Ultra-Bold';font-variant-ligatures:normal;font-variant-caps:normal;font-variant-numeric:normal;font-feature-settings:normal;text-align:center;writing-mode:lr-tb;text-anchor:middle;fill:#ffffff;stroke-width:0.05386555px"
           id="path1662"
           inkscape:connector-curvature="0" />
      </g>
      <g
         transform="matrix(4.0093424,0,0,4.0093424,-237.96375,-180.5928)"
         aria-label="today?"
         style="font-style:normal;font-variant:normal;font-weight:800;font-stretch:normal;font-size:6.33694696px;line-height:8.78295231px;font-family:'Helvetica Now Display';-inkscape-font-specification:'Helvetica Now Display, Ultra-Bold';font-variant-ligatures:normal;font-variant-caps:normal;font-variant-numeric:normal;font-feature-settings:normal;text-align:center;letter-spacing:0px;word-spacing:0px;writing-mode:lr-tb;text-anchor:middle;fill:#ffffff;fill-opacity:1;stroke:none;stroke-width:0.05386555px;stroke-linecap:butt;stroke-linejoin:miter;stroke-opacity:1"
         id="text4780">
        <path
           d="m 98.512315,85.924929 h -0.627358 v -0.969553 h -0.988563 v 0.969553 h -0.487945 v 0.722412 h 0.487945 v 1.634932 c 0,0.66538 0.342195,0.937868 1.159661,0.937868 0.171098,0 0.323184,-0.0063 0.45626,-0.02535 v -0.735086 h -0.253478 c -0.272488,0 -0.37388,-0.05703 -0.37388,-0.285163 v -1.527204 h 0.627358 z"
           style="font-style:normal;font-variant:normal;font-weight:800;font-stretch:normal;font-size:6.33694696px;font-family:'Helvetica Now Display';-inkscape-font-specification:'Helvetica Now Display, Ultra-Bold';font-variant-ligatures:normal;font-variant-caps:normal;font-variant-numeric:normal;font-feature-settings:normal;text-align:center;writing-mode:lr-tb;text-anchor:middle;fill:#ffffff;stroke-width:0.05386555px"
           id="path1665"
           inkscape:connector-curvature="0" />
        <path
           d="m 100.45142,89.270837 c 1.0456,0 1.71098,-0.671716 1.71098,-1.710976 0,-1.051933 -0.65905,-1.710975 -1.71098,-1.710975 -1.045595,0 -1.717311,0.659042 -1.717311,1.710975 0,1.03926 0.678053,1.710976 1.717311,1.710976 z m 0,-0.792118 c -0.456259,0 -0.716074,-0.310511 -0.716074,-0.918858 0,-0.608347 0.259815,-0.918857 0.716074,-0.918857 0.44992,0 0.70974,0.31051 0.70974,0.918857 0,0.608347 -0.25982,0.918858 -0.70974,0.918858 z"
           style="font-style:normal;font-variant:normal;font-weight:800;font-stretch:normal;font-size:6.33694696px;font-family:'Helvetica Now Display';-inkscape-font-specification:'Helvetica Now Display, Ultra-Bold';font-variant-ligatures:normal;font-variant-caps:normal;font-variant-numeric:normal;font-feature-settings:normal;text-align:center;writing-mode:lr-tb;text-anchor:middle;fill:#ffffff;stroke-width:0.05386555px"
           id="path1667"
           inkscape:connector-curvature="0" />
        <path
           d="m 104.84927,86.31782 c -0.2218,-0.310511 -0.54498,-0.468934 -0.95688,-0.468934 -0.9949,0 -1.42581,0.811129 -1.42581,1.710975 0,0.899847 0.43091,1.710976 1.42581,1.710976 0.43091,0 0.76043,-0.164761 0.98223,-0.500619 v 0.424576 h 0.96321 v -4.511907 h -0.98856 z m -0.68439,2.160899 c -0.4626,0 -0.69707,-0.297837 -0.69707,-0.89351 0,-0.614684 0.25982,-0.944205 0.69707,-0.944205 0.46893,0 0.7034,0.304174 0.7034,0.918857 0,0.614684 -0.23447,0.918858 -0.7034,0.918858 z"
           style="font-style:normal;font-variant:normal;font-weight:800;font-stretch:normal;font-size:6.33694696px;font-family:'Helvetica Now Display';-inkscape-font-specification:'Helvetica Now Display, Ultra-Bold';font-variant-ligatures:normal;font-variant-caps:normal;font-variant-numeric:normal;font-feature-settings:normal;text-align:center;writing-mode:lr-tb;text-anchor:middle;fill:#ffffff;stroke-width:0.05386555px"
           id="path1669"
           inkscape:connector-curvature="0" />
        <path
           d="m 109.55762,89.194794 c -0.0887,-0.126739 -0.13308,-0.329522 -0.13308,-0.60201 V 86.85646 c 0,-0.671716 -0.48794,-1.007574 -1.4575,-1.007574 -0.98856,0 -1.50819,0.380217 -1.56522,1.134313 h 0.98223 c 0.0317,-0.329521 0.17743,-0.430912 0.57666,-0.430912 0.33586,0 0.50062,0.107728 0.50062,0.329521 0,0.202782 -0.13942,0.2915 -0.42458,0.323184 l -0.51329,0.04436 c -0.90619,0.07604 -1.28007,0.430912 -1.28007,1.020248 0,0.633695 0.48161,1.001238 1.19135,1.001238 0.47527,0 0.8238,-0.14575 1.0456,-0.443586 0.006,0.158423 0.038,0.278825 0.0824,0.367543 z m -1.82504,-0.589336 c -0.30418,0 -0.48161,-0.14575 -0.48161,-0.37388 0,-0.22813 0.15842,-0.361206 0.47527,-0.392891 l 0.40556,-0.04436 c 0.15843,-0.01901 0.27249,-0.06337 0.32953,-0.126739 v 0.240804 c 0,0.481608 -0.30418,0.697065 -0.72875,0.697065 z"
           style="font-style:normal;font-variant:normal;font-weight:800;font-stretch:normal;font-size:6.33694696px;font-family:'Helvetica Now Display';-inkscape-font-specification:'Helvetica Now Display, Ultra-Bold';font-variant-ligatures:normal;font-variant-caps:normal;font-variant-numeric:normal;font-feature-settings:normal;text-align:center;writing-mode:lr-tb;text-anchor:middle;fill:#ffffff;stroke-width:0.05386555px"
           id="path1671"
           inkscape:connector-curvature="0" />
        <path
           d="m 111.82625,86.393863 c -0.2218,0.754097 -0.39923,1.438487 -0.54498,2.053171 -0.14575,-0.60201 -0.32952,-1.292737 -0.55765,-2.059508 l -0.14575,-0.462597 h -1.06461 l 0.93787,2.655181 c 0.10139,0.285162 0.15209,0.500619 0.15209,0.633695 0,0.304173 -0.16476,0.45626 -0.49429,0.45626 h -0.31684 v 0.760433 c 0.13307,0.0063 0.26615,0.01267 0.38655,0.01267 0.91252,0 1.32442,-0.253478 1.6286,-1.121639 l 1.18501,-3.396604 H 111.972 Z"
           style="font-style:normal;font-variant:normal;font-weight:800;font-stretch:normal;font-size:6.33694696px;font-family:'Helvetica Now Display';-inkscape-font-specification:'Helvetica Now Display, Ultra-Bold';font-variant-ligatures:normal;font-variant-caps:normal;font-variant-numeric:normal;font-feature-settings:normal;text-align:center;writing-mode:lr-tb;text-anchor:middle;fill:#ffffff;stroke-width:0.05386555px"
           id="path1673"
           inkscape:connector-curvature="0" />
        <path
           d="m 115.3686,87.692937 c 0,-0.209119 0.0317,-0.354869 0.0951,-0.437249 0.0507,-0.07604 0.20278,-0.202782 0.44992,-0.386554 0.43725,-0.31051 0.65271,-0.671716 0.65271,-1.096292 0,-0.754096 -0.61469,-1.191346 -1.5779,-1.191346 -1.08996,0 -1.66028,0.506956 -1.65395,1.501857 h 1.00124 c 0.006,-0.487945 0.1711,-0.678054 0.62102,-0.678054 0.36121,0 0.54498,0.158424 0.54498,0.475271 0,0.08238 -0.0253,0.164761 -0.0697,0.240804 -0.10139,0.152087 -0.19011,0.20912 -0.39289,0.342196 -0.55131,0.367542 -0.62102,0.62102 -0.62102,1.229367 z m 0.0824,1.501857 v -1.089955 h -1.1153 v 1.089955 z"
           style="font-style:normal;font-variant:normal;font-weight:800;font-stretch:normal;font-size:6.33694696px;font-family:'Helvetica Now Display';-inkscape-font-specification:'Helvetica Now Display, Ultra-Bold';font-variant-ligatures:normal;font-variant-caps:normal;font-variant-numeric:normal;font-feature-settings:normal;text-align:center;writing-mode:lr-tb;text-anchor:middle;fill:#ffffff;stroke-width:0.05386555px"
           id="path1675"
           inkscape:connector-curvature="0" />
      </g>
      <g
         transform="matrix(4.0093424,0,0,4.0093424,-237.96375,-177.7149)"
         aria-label="Craftsman"
         style="font-style:normal;font-variant:normal;font-weight:800;font-stretch:normal;font-size:11.26652241px;line-height:15.08892155px;font-family:'Helvetica Now Display';-inkscape-font-specification:'Helvetica Now Display, Ultra-Bold';font-variant-ligatures:normal;font-variant-caps:normal;font-variant-numeric:normal;font-feature-settings:normal;text-align:center;letter-spacing:0px;word-spacing:0px;writing-mode:lr-tb;text-anchor:middle;fill:#ffffff;fill-opacity:1;stroke:none;stroke-width:0.05386555px;stroke-linecap:butt;stroke-linejoin:miter;stroke-opacity:1"
         id="text4784">
        <path
           d="m 83.030778,82.50501 c 2.061773,0 3.571487,-1.182985 3.819351,-3.267292 h -1.904043 c -0.180264,1.03652 -0.935121,1.622379 -1.915308,1.622379 -1.29565,0 -2.016708,-0.935121 -2.016708,-2.546234 0,-1.611113 0.721058,-2.546234 2.016708,-2.546234 0.935121,0 1.633645,0.495727 1.870242,1.408315 h 1.926576 c -0.29293,-1.994174 -1.84771,-3.053227 -3.796818,-3.053227 -2.557501,0 -3.999616,1.701245 -3.999616,4.191146 0,2.444836 1.487181,4.191147 3.999616,4.191147 z"
           style="font-style:normal;font-variant:normal;font-weight:800;font-stretch:normal;font-size:11.26652241px;font-family:'Helvetica Now Display';-inkscape-font-specification:'Helvetica Now Display, Ultra-Bold';font-variant-ligatures:normal;font-variant-caps:normal;font-variant-numeric:normal;font-feature-settings:normal;text-align:center;writing-mode:lr-tb;text-anchor:middle;fill:#ffffff;stroke-width:0.05386555px"
           id="path1678"
           inkscape:connector-curvature="0" />
        <path
           d="m 90.984933,76.421087 c -0.833722,0 -1.385782,0.394329 -1.656178,1.171719 V 76.51122 h -1.712512 v 5.813525 h 1.757578 V 79.62078 c 0,-1.047787 0.51826,-1.577313 1.543513,-1.577313 h 0.450661 V 76.44362 c -0.168998,-0.01127 -0.292929,-0.02253 -0.383062,-0.02253 z"
           style="font-style:normal;font-variant:normal;font-weight:800;font-stretch:normal;font-size:11.26652241px;font-family:'Helvetica Now Display';-inkscape-font-specification:'Helvetica Now Display, Ultra-Bold';font-variant-ligatures:normal;font-variant-caps:normal;font-variant-numeric:normal;font-feature-settings:normal;text-align:center;writing-mode:lr-tb;text-anchor:middle;fill:#ffffff;stroke-width:0.05386555px"
           id="path1680"
           inkscape:connector-curvature="0" />
        <path
           d="m 97.373046,82.324745 c -0.157731,-0.22533 -0.236597,-0.585859 -0.236597,-1.070319 v -3.087028 c 0,-1.194251 -0.867522,-1.791377 -2.5913,-1.791377 -1.757578,0 -2.681433,0.675992 -2.782831,2.016708 h 1.746311 c 0.05633,-0.585859 0.315462,-0.766124 1.025253,-0.766124 0.597126,0 0.890055,0.191531 0.890055,0.585859 0,0.360529 -0.247863,0.518261 -0.754857,0.574593 l -0.912588,0.07887 c -1.611113,0.135198 -2.275837,0.766123 -2.275837,1.81391 0,1.126652 0.856255,1.78011 2.118106,1.78011 0.844989,0 1.464648,-0.25913 1.858976,-0.788656 0.01127,0.281663 0.0676,0.495727 0.146465,0.653458 z m -3.244759,-1.047786 c -0.540793,0 -0.856255,-0.25913 -0.856255,-0.664725 0,-0.405595 0.281663,-0.642192 0.844989,-0.698525 l 0.721057,-0.07886 c 0.281663,-0.0338 0.484461,-0.112665 0.585859,-0.225331 v 0.428128 c 0,0.856256 -0.540793,1.239318 -1.29565,1.239318 z"
           style="font-style:normal;font-variant:normal;font-weight:800;font-stretch:normal;font-size:11.26652241px;font-family:'Helvetica Now Display';-inkscape-font-specification:'Helvetica Now Display, Ultra-Bold';font-variant-ligatures:normal;font-variant-caps:normal;font-variant-numeric:normal;font-feature-settings:normal;text-align:center;writing-mode:lr-tb;text-anchor:middle;fill:#ffffff;stroke-width:0.05386555px"
           id="path1682"
           inkscape:connector-curvature="0" />
        <path
           d="m 101.33886,75.609898 v -1.306917 c -0.32673,-0.0338 -0.6084,-0.04507 -0.83373,-0.04507 -1.453378,0 -2.095569,0.788657 -2.095569,1.915309 v 0.337996 h -0.867523 v 1.284383 h 0.867523 v 4.529142 h 1.757579 v -4.529142 h 1.14918 V 76.51122 h -1.14918 v -0.281663 c 0,-0.416862 0.2366,-0.619659 0.69852,-0.619659 z"
           style="font-style:normal;font-variant:normal;font-weight:800;font-stretch:normal;font-size:11.26652241px;font-family:'Helvetica Now Display';-inkscape-font-specification:'Helvetica Now Display, Ultra-Bold';font-variant-ligatures:normal;font-variant-caps:normal;font-variant-numeric:normal;font-feature-settings:normal;text-align:center;writing-mode:lr-tb;text-anchor:middle;fill:#ffffff;stroke-width:0.05386555px"
           id="path1684"
           inkscape:connector-curvature="0" />
        <path
           d="m 105.43986,76.51122 h -1.11538 v -1.723778 h -1.75758 v 1.723778 h -0.86752 v 1.284383 h 0.86752 v 2.906763 c 0,1.182985 0.60839,1.667445 2.06178,1.667445 0.30419,0 0.57459,-0.01127 0.81118,-0.04507 v -1.306916 h -0.45066 c -0.48446,0 -0.66472,-0.101399 -0.66472,-0.506994 v -2.715232 h 1.11538 z"
           style="font-style:normal;font-variant:normal;font-weight:800;font-stretch:normal;font-size:11.26652241px;font-family:'Helvetica Now Display';-inkscape-font-specification:'Helvetica Now Display, Ultra-Bold';font-variant-ligatures:normal;font-variant-caps:normal;font-variant-numeric:normal;font-feature-settings:normal;text-align:center;writing-mode:lr-tb;text-anchor:middle;fill:#ffffff;stroke-width:0.05386555px"
           id="path1686"
           inkscape:connector-curvature="0" />
        <path
           d="m 108.65084,82.493743 c 1.75757,0 2.77156,-0.675991 2.77156,-1.881509 0,-1.025254 -0.65346,-1.58858 -2.03924,-1.802644 l -0.86752,-0.123932 c -0.58586,-0.09013 -0.84499,-0.25913 -0.84499,-0.585859 0,-0.371795 0.29293,-0.552059 0.89005,-0.552059 0.676,0 1.05906,0.22533 1.07032,0.822456 h 1.63365 c -0.0676,-1.32945 -0.96892,-1.994175 -2.70397,-1.994175 -1.67871,0 -2.61383,0.664725 -2.61383,1.836443 0,0.980188 0.65346,1.577314 1.96038,1.780111 l 0.75485,0.123932 c 0.76613,0.123932 1.00272,0.281663 1.00272,0.642192 0,0.371795 -0.32673,0.563326 -0.98018,0.563326 -0.73233,0 -1.05906,-0.214064 -1.11539,-0.844989 h -1.71251 c 0.1014,1.430848 0.98019,2.016707 2.7941,2.016707 z"
           style="font-style:normal;font-variant:normal;font-weight:800;font-stretch:normal;font-size:11.26652241px;font-family:'Helvetica Now Display';-inkscape-font-specification:'Helvetica Now Display, Ultra-Bold';font-variant-ligatures:normal;font-variant-caps:normal;font-variant-numeric:normal;font-feature-settings:normal;text-align:center;writing-mode:lr-tb;text-anchor:middle;fill:#ffffff;stroke-width:0.05386555px"
           id="path1688"
           inkscape:connector-curvature="0" />
        <path
           d="m 119.04984,76.376021 c -0.73232,0 -1.34072,0.349263 -1.81391,1.047787 -0.32673,-0.698524 -0.92386,-1.047787 -1.80264,-1.047787 -0.676,0 -1.22805,0.315463 -1.65618,0.957655 V 76.51122 h -1.71251 v 5.813525 h 1.75757 v -3.210959 c 0,-0.844989 0.42813,-1.239317 1.01399,-1.239317 0.57459,0 0.86752,0.326729 0.86752,0.980187 v 3.470089 h 1.75758 v -3.210959 c 0,-0.844989 0.41686,-1.239317 1.00272,-1.239317 0.57459,0 0.86752,0.326729 0.86752,0.980187 v 3.470089 h 1.75758 V 78.55046 c 0,-1.385782 -0.77739,-2.174439 -2.03924,-2.174439 z"
           style="font-style:normal;font-variant:normal;font-weight:800;font-stretch:normal;font-size:11.26652241px;font-family:'Helvetica Now Display';-inkscape-font-specification:'Helvetica Now Display, Ultra-Bold';font-variant-ligatures:normal;font-variant-caps:normal;font-variant-numeric:normal;font-feature-settings:normal;text-align:center;writing-mode:lr-tb;text-anchor:middle;fill:#ffffff;stroke-width:0.05386555px"
           id="path1690"
           inkscape:connector-curvature="0" />
        <path
           d="m 127.70254,82.324745 c -0.15773,-0.22533 -0.2366,-0.585859 -0.2366,-1.070319 v -3.087028 c 0,-1.194251 -0.86752,-1.791377 -2.5913,-1.791377 -1.75757,0 -2.68143,0.675992 -2.78283,2.016708 h 1.74631 c 0.0563,-0.585859 0.31547,-0.766124 1.02526,-0.766124 0.59712,0 0.89005,0.191531 0.89005,0.585859 0,0.360529 -0.24786,0.518261 -0.75486,0.574593 l -0.91258,0.07887 c -1.61112,0.135198 -2.27584,0.766123 -2.27584,1.81391 0,1.126652 0.85625,1.78011 2.11811,1.78011 0.84498,0 1.46464,-0.25913 1.85897,-0.788656 0.0113,0.281663 0.0676,0.495727 0.14647,0.653458 z m -3.24476,-1.047786 c -0.54079,0 -0.85625,-0.25913 -0.85625,-0.664725 0,-0.405595 0.28166,-0.642192 0.84499,-0.698525 l 0.72105,-0.07886 c 0.28167,-0.0338 0.48446,-0.112665 0.58586,-0.225331 v 0.428128 c 0,0.856256 -0.54079,1.239318 -1.29565,1.239318 z"
           style="font-style:normal;font-variant:normal;font-weight:800;font-stretch:normal;font-size:11.26652241px;font-family:'Helvetica Now Display';-inkscape-font-specification:'Helvetica Now Display, Ultra-Bold';font-variant-ligatures:normal;font-variant-caps:normal;font-variant-numeric:normal;font-feature-settings:normal;text-align:center;writing-mode:lr-tb;text-anchor:middle;fill:#ffffff;stroke-width:0.05386555px"
           id="path1692"
           inkscape:connector-curvature="0" />
        <path
           d="m 131.93875,76.376021 c -0.76612,0 -1.37451,0.315463 -1.82517,0.957655 V 76.51122 h -1.71252 v 5.813525 h 1.75758 v -3.244758 c 0,-0.799923 0.50699,-1.205518 1.10412,-1.205518 0.61966,0 0.93512,0.326729 0.93512,0.991454 v 3.458822 h 1.75758 v -3.808084 c 0,-1.397049 -0.81119,-2.14064 -2.01671,-2.14064 z"
           style="font-style:normal;font-variant:normal;font-weight:800;font-stretch:normal;font-size:11.26652241px;font-family:'Helvetica Now Display';-inkscape-font-specification:'Helvetica Now Display, Ultra-Bold';font-variant-ligatures:normal;font-variant-caps:normal;font-variant-numeric:normal;font-feature-settings:normal;text-align:center;writing-mode:lr-tb;text-anchor:middle;fill:#ffffff;stroke-width:0.05386555px"
           id="path1694"
           inkscape:connector-curvature="0" />
      </g>
      <g
         style="stroke-width:0.20358635"
         transform="matrix(4.0093424,0,0,4.0093424,-248.01782,-152.29608)"
         id="g3333">
        <g
           aria-label="1"
           style="font-style:normal;font-variant:normal;font-weight:normal;font-stretch:normal;font-size:4.93888903px;line-height:6.61458302px;font-family:'Rock Salt';-inkscape-font-specification:'Rock Salt, Normal';font-variant-ligatures:normal;font-variant-caps:normal;font-variant-numeric:normal;font-feature-settings:normal;text-align:center;letter-spacing:0px;word-spacing:0px;writing-mode:lr-tb;text-anchor:middle;fill:#d40000;fill-opacity:1;stroke:none;stroke-width:0.01423138px;stroke-linecap:butt;stroke-linejoin:miter;stroke-opacity:1"
           id="text3301"
           transform="matrix(3.3367008,2.0604856,-4.4519541,1.544316,-193.42527,-184.92943)">
          <path
             d="m 105.7285,5.9151221 q 0,0.096463 -0.0241,0.1881023 -0.0241,0.086816 -0.0386,0.1832791 -0.005,0.00965 -0.005,0.033762 0,0.028939 0.005,0.057878 0.005,0.024116 0.0145,0.048231 -0.0482,0.096463 -0.0724,0.2073948 -0.0241,0.1061089 -0.0434,0.217041 -0.0193,0.1109321 -0.0386,0.2218642 -0.0193,0.110932 -0.0531,0.217041 v 0.014469 q 0,0.024116 0.01,0.043408 0.0145,0.019292 0.0145,0.043408 v 0.019292 q -0.0627,0.2025717 -0.0965,0.4196127 -0.0338,0.2122179 -0.11093,0.3954969 0.01,0.048231 0.01,0.072347 0,0.053054 -0.0145,0.096463 -0.01,0.038585 -0.0289,0.072347 -0.0145,0.028939 -0.0338,0.062701 -0.0145,0.028939 -0.0241,0.062701 -0.005,0.019293 -0.005,0.038585 0,0.019293 0,0.038585 -0.005,0.110932 -0.01,0.1929253 -0.005,0.081993 -0.0675,0.178456 -0.005,0.1254014 -0.0289,0.2411567 -0.0193,0.1157552 -0.0579,0.2363335 -0.0241,0.096463 -0.0579,0.1929254 -0.0338,0.096463 -0.0482,0.1929253 -0.01,0.048231 -0.005,0.1205787 0.01,0.06752 0.01,0.120579 0,0.110932 -0.01,0.217041 -0.005,0.110932 -0.0289,0.212217 0.0145,0.07235 0.053,0.130225 0.0386,0.0627 0.0482,0.135048 0.0145,0.01447 0.0289,0.01447 0.01,0 0.0193,-0.0048 0.0145,-0.0048 0.0289,-0.0048 0.0193,0 0.0289,0.0096 0.0145,0.03858 0.0145,0.06752 0,0.05788 -0.0531,0.101286 0.005,0.02894 0.005,0.04823 0,0.02412 0,0.04823 0,0.03376 -0.01,0.08682 -0.005,0.05305 -0.053,0.05305 -0.0241,0 -0.0241,-0.02894 0.005,-0.02412 -0.0193,-0.03376 -0.0289,0.0096 -0.0482,0.0096 -0.0386,0 -0.0627,-0.01447 -0.0241,-0.01447 -0.0482,-0.02894 -0.0241,-0.01447 -0.0531,-0.02894 -0.0241,-0.0096 -0.0627,-0.0048 -0.0386,-0.07235 -0.0868,-0.139871 -0.0434,-0.0627 -0.10128,-0.115755 -0.0338,-0.115756 -0.0434,-0.241157 -0.005,-0.120578 -0.0482,-0.23151 0.005,-0.0048 0.0145,-0.02894 0.01,-0.02412 0.0193,-0.04823 0.01,-0.02412 0.0145,-0.04823 0.01,-0.02412 0.01,-0.03376 0,-0.02894 -0.01,-0.05305 -0.01,-0.01929 -0.0145,-0.04341 0.0338,-0.110933 0.0434,-0.2411577 0.01,-0.1302246 0.0627,-0.2266873 0.005,-0.048231 0.01,-0.1109321 0.005,-0.067524 0.0145,-0.1254014 0.0145,-0.062701 0.0338,-0.1157552 0.0241,-0.057878 0.0675,-0.096463 -0.01,-0.024116 -0.0145,-0.053055 0,-0.033762 0,-0.057878 0,-0.1157552 0.0241,-0.2218642 0.0289,-0.110932 0.0627,-0.2218641 0.01,-0.033762 0.0193,-0.067524 0.0145,-0.033762 0.0241,-0.072347 0.005,-0.00965 0,-0.019292 0,-0.00965 0,-0.019293 0,-0.057878 -0.0145,-0.110932 0.0289,-0.019293 0.0386,-0.048231 0.01,-0.033762 0.0145,-0.067524 0.01,-0.038585 0.0193,-0.072347 0.01,-0.033762 0.0338,-0.057878 V 8.114443 q 0,-0.1688097 0.0482,-0.3279731 0.0482,-0.1639866 0.0868,-0.32315 v -0.019292 q 0,-0.019293 -0.01,-0.028939 -0.01,-0.00965 -0.01,-0.028939 v -0.00965 q 0.01,-0.043408 0.0241,-0.081993 0.0145,-0.043408 0.0241,-0.086816 0.0241,-0.1061089 0.0289,-0.2122179 0.01,-0.1061089 0.0482,-0.2073947 -0.01,-0.038585 -0.01,-0.07717 0,-0.038585 0,-0.07717 0,-0.1109321 0.01,-0.2122179 0.0145,-0.1061089 0.0386,-0.2122179 0.01,-0.038585 0.0241,-0.1012858 0.0193,-0.062701 0.0193,-0.096463 0,-0.057878 -0.0145,-0.1157552 -0.0145,-0.062701 -0.0145,-0.1205783 0,-0.028939 0.005,-0.057878 0.005,-0.028939 0.0241,-0.053054 -0.0338,-0.062701 -0.0338,-0.144694 0,-0.067524 0.0193,-0.1350478 0.0193,-0.072347 0.0675,-0.1205783 h 0.14469 q 0.0675,0 0.13505,0.019292 0.0675,0.019293 0.10129,0.086816 0.01,0.014469 0.0193,0.053055 0.0145,0.033762 0.0241,0.07717 0.0145,0.038585 0.0241,0.07717 0.01,0.033762 0.01,0.053055 0,0.057878 -0.0289,0.1061089 0.0338,0.038585 0.0386,0.086816 0.01,0.043408 0.01,0.091639 z"
             style="font-style:normal;font-variant:normal;font-weight:normal;font-stretch:normal;font-size:4.93888903px;font-family:'Rock Salt';-inkscape-font-specification:'Rock Salt, Normal';font-variant-ligatures:normal;font-variant-caps:normal;font-variant-numeric:normal;font-feature-settings:normal;text-align:center;writing-mode:lr-tb;text-anchor:middle;fill:#d40000;fill-opacity:1;stroke-width:0.01423138px"
             id="path3306"
             inkscape:connector-curvature="0" />
        </g>
        <g
           transform="matrix(-3.3367008,2.0604856,4.4519541,1.544316,434.98144,-184.92943)"
           id="g3311"
           style="font-style:normal;font-variant:normal;font-weight:normal;font-stretch:normal;font-size:4.93888903px;line-height:6.61458302px;font-family:'Rock Salt';-inkscape-font-specification:'Rock Salt, Normal';font-variant-ligatures:normal;font-variant-caps:normal;font-variant-numeric:normal;font-feature-settings:normal;text-align:center;letter-spacing:0px;word-spacing:0px;writing-mode:lr-tb;text-anchor:middle;fill:#d40000;fill-opacity:1;stroke:none;stroke-width:0.01423138px;stroke-linecap:butt;stroke-linejoin:miter;stroke-opacity:1"
           aria-label="1">
          <path
             inkscape:connector-curvature="0"
             id="path3309"
             style="font-style:normal;font-variant:normal;font-weight:normal;font-stretch:normal;font-size:4.93888903px;font-family:'Rock Salt';-inkscape-font-specification:'Rock Salt, Normal';font-variant-ligatures:normal;font-variant-caps:normal;font-variant-numeric:normal;font-feature-settings:normal;text-align:center;writing-mode:lr-tb;text-anchor:middle;fill:#d40000;fill-opacity:1;stroke-width:0.01423138px"
             d="m 105.7285,5.9151221 q 0,0.096463 -0.0241,0.1881023 -0.0241,0.086816 -0.0386,0.1832791 -0.005,0.00965 -0.005,0.033762 0,0.028939 0.005,0.057878 0.005,0.024116 0.0145,0.048231 -0.0482,0.096463 -0.0724,0.2073948 -0.0241,0.1061089 -0.0434,0.217041 -0.0193,0.1109321 -0.0386,0.2218642 -0.0193,0.110932 -0.0531,0.217041 v 0.014469 q 0,0.024116 0.01,0.043408 0.0145,0.019292 0.0145,0.043408 v 0.019292 q -0.0627,0.2025717 -0.0965,0.4196127 -0.0338,0.2122179 -0.11093,0.3954969 0.01,0.048231 0.01,0.072347 0,0.053054 -0.0145,0.096463 -0.01,0.038585 -0.0289,0.072347 -0.0145,0.028939 -0.0338,0.062701 -0.0145,0.028939 -0.0241,0.062701 -0.005,0.019293 -0.005,0.038585 0,0.019293 0,0.038585 -0.005,0.110932 -0.01,0.1929253 -0.005,0.081993 -0.0675,0.178456 -0.005,0.1254014 -0.0289,0.2411567 -0.0193,0.1157552 -0.0579,0.2363335 -0.0241,0.096463 -0.0579,0.1929254 -0.0338,0.096463 -0.0482,0.1929253 -0.01,0.048231 -0.005,0.1205787 0.01,0.06752 0.01,0.120579 0,0.110932 -0.01,0.217041 -0.005,0.110932 -0.0289,0.212217 0.0145,0.07235 0.053,0.130225 0.0386,0.0627 0.0482,0.135048 0.0145,0.01447 0.0289,0.01447 0.01,0 0.0193,-0.0048 0.0145,-0.0048 0.0289,-0.0048 0.0193,0 0.0289,0.0096 0.0145,0.03858 0.0145,0.06752 0,0.05788 -0.0531,0.101286 0.005,0.02894 0.005,0.04823 0,0.02412 0,0.04823 0,0.03376 -0.01,0.08682 -0.005,0.05305 -0.053,0.05305 -0.0241,0 -0.0241,-0.02894 0.005,-0.02412 -0.0193,-0.03376 -0.0289,0.0096 -0.0482,0.0096 -0.0386,0 -0.0627,-0.01447 -0.0241,-0.01447 -0.0482,-0.02894 -0.0241,-0.01447 -0.0531,-0.02894 -0.0241,-0.0096 -0.0627,-0.0048 -0.0386,-0.07235 -0.0868,-0.139871 -0.0434,-0.0627 -0.10128,-0.115755 -0.0338,-0.115756 -0.0434,-0.241157 -0.005,-0.120578 -0.0482,-0.23151 0.005,-0.0048 0.0145,-0.02894 0.01,-0.02412 0.0193,-0.04823 0.01,-0.02412 0.0145,-0.04823 0.01,-0.02412 0.01,-0.03376 0,-0.02894 -0.01,-0.05305 -0.01,-0.01929 -0.0145,-0.04341 0.0338,-0.110933 0.0434,-0.2411577 0.01,-0.1302246 0.0627,-0.2266873 0.005,-0.048231 0.01,-0.1109321 0.005,-0.067524 0.0145,-0.1254014 0.0145,-0.062701 0.0338,-0.1157552 0.0241,-0.057878 0.0675,-0.096463 -0.01,-0.024116 -0.0145,-0.053055 0,-0.033762 0,-0.057878 0,-0.1157552 0.0241,-0.2218642 0.0289,-0.110932 0.0627,-0.2218641 0.01,-0.033762 0.0193,-0.067524 0.0145,-0.033762 0.0241,-0.072347 0.005,-0.00965 0,-0.019292 0,-0.00965 0,-0.019293 0,-0.057878 -0.0145,-0.110932 0.0289,-0.019293 0.0386,-0.048231 0.01,-0.033762 0.0145,-0.067524 0.01,-0.038585 0.0193,-0.072347 0.01,-0.033762 0.0338,-0.057878 V 8.114443 q 0,-0.1688097 0.0482,-0.3279731 0.0482,-0.1639866 0.0868,-0.32315 v -0.019292 q 0,-0.019293 -0.01,-0.028939 -0.01,-0.00965 -0.01,-0.028939 v -0.00965 q 0.01,-0.043408 0.0241,-0.081993 0.0145,-0.043408 0.0241,-0.086816 0.0241,-0.1061089 0.0289,-0.2122179 0.01,-0.1061089 0.0482,-0.2073947 -0.01,-0.038585 -0.01,-0.07717 0,-0.038585 0,-0.07717 0,-0.1109321 0.01,-0.2122179 0.0145,-0.1061089 0.0386,-0.2122179 0.01,-0.038585 0.0241,-0.1012858 0.0193,-0.062701 0.0193,-0.096463 0,-0.057878 -0.0145,-0.1157552 -0.0145,-0.062701 -0.0145,-0.1205783 0,-0.028939 0.005,-0.057878 0.005,-0.028939 0.0241,-0.053054 -0.0338,-0.062701 -0.0338,-0.144694 0,-0.067524 0.0193,-0.1350478 0.0193,-0.072347 0.0675,-0.1205783 h 0.14469 q 0.0675,0 0.13505,0.019292 0.0675,0.019293 0.10129,0.086816 0.01,0.014469 0.0193,0.053055 0.0145,0.033762 0.0241,0.07717 0.0145,0.038585 0.0241,0.07717 0.01,0.033762 0.01,0.053055 0,0.057878 -0.0289,0.1061089 0.0338,0.038585 0.0386,0.086816 0.01,0.043408 0.01,0.091639 z" />
        </g>
        <g
           aria-label="1"
           style="font-style:normal;font-variant:normal;font-weight:normal;font-stretch:normal;font-size:4.93888903px;line-height:6.61458302px;font-family:'Rock Salt';-inkscape-font-specification:'Rock Salt, Normal';font-variant-ligatures:normal;font-variant-caps:normal;font-variant-numeric:normal;font-feature-settings:normal;text-align:center;letter-spacing:0px;word-spacing:0px;writing-mode:lr-tb;text-anchor:middle;fill:#d40000;fill-opacity:1;stroke:none;stroke-width:0.01657987px;stroke-linecap:butt;stroke-linejoin:miter;stroke-opacity:1"
           id="g3319"
           transform="matrix(-2.8569147,1.773051,3.8118052,1.3288863,395.18813,-124.1088)">
          <path
             d="m 105.7285,5.9151221 q 0,0.096463 -0.0241,0.1881023 -0.0241,0.086816 -0.0386,0.1832791 -0.005,0.00965 -0.005,0.033762 0,0.028939 0.005,0.057878 0.005,0.024116 0.0145,0.048231 -0.0482,0.096463 -0.0724,0.2073948 -0.0241,0.1061089 -0.0434,0.217041 -0.0193,0.1109321 -0.0386,0.2218642 -0.0193,0.110932 -0.0531,0.217041 v 0.014469 q 0,0.024116 0.01,0.043408 0.0145,0.019292 0.0145,0.043408 v 0.019292 q -0.0627,0.2025717 -0.0965,0.4196127 -0.0338,0.2122179 -0.11093,0.3954969 0.01,0.048231 0.01,0.072347 0,0.053054 -0.0145,0.096463 -0.01,0.038585 -0.0289,0.072347 -0.0145,0.028939 -0.0338,0.062701 -0.0145,0.028939 -0.0241,0.062701 -0.005,0.019293 -0.005,0.038585 0,0.019293 0,0.038585 -0.005,0.110932 -0.01,0.1929253 -0.005,0.081993 -0.0675,0.178456 -0.005,0.1254014 -0.0289,0.2411567 -0.0193,0.1157552 -0.0579,0.2363335 -0.0241,0.096463 -0.0579,0.1929254 -0.0338,0.096463 -0.0482,0.1929253 -0.01,0.048231 -0.005,0.1205787 0.01,0.06752 0.01,0.120579 0,0.110932 -0.01,0.217041 -0.005,0.110932 -0.0289,0.212217 0.0145,0.07235 0.053,0.130225 0.0386,0.0627 0.0482,0.135048 0.0145,0.01447 0.0289,0.01447 0.01,0 0.0193,-0.0048 0.0145,-0.0048 0.0289,-0.0048 0.0193,0 0.0289,0.0096 0.0145,0.03858 0.0145,0.06752 0,0.05788 -0.0531,0.101286 0.005,0.02894 0.005,0.04823 0,0.02412 0,0.04823 0,0.03376 -0.01,0.08682 -0.005,0.05305 -0.053,0.05305 -0.0241,0 -0.0241,-0.02894 0.005,-0.02412 -0.0193,-0.03376 -0.0289,0.0096 -0.0482,0.0096 -0.0386,0 -0.0627,-0.01447 -0.0241,-0.01447 -0.0482,-0.02894 -0.0241,-0.01447 -0.0531,-0.02894 -0.0241,-0.0096 -0.0627,-0.0048 -0.0386,-0.07235 -0.0868,-0.139871 -0.0434,-0.0627 -0.10128,-0.115755 -0.0338,-0.115756 -0.0434,-0.241157 -0.005,-0.120578 -0.0482,-0.23151 0.005,-0.0048 0.0145,-0.02894 0.01,-0.02412 0.0193,-0.04823 0.01,-0.02412 0.0145,-0.04823 0.01,-0.02412 0.01,-0.03376 0,-0.02894 -0.01,-0.05305 -0.01,-0.01929 -0.0145,-0.04341 0.0338,-0.110933 0.0434,-0.2411577 0.01,-0.1302246 0.0627,-0.2266873 0.005,-0.048231 0.01,-0.1109321 0.005,-0.067524 0.0145,-0.1254014 0.0145,-0.062701 0.0338,-0.1157552 0.0241,-0.057878 0.0675,-0.096463 -0.01,-0.024116 -0.0145,-0.053055 0,-0.033762 0,-0.057878 0,-0.1157552 0.0241,-0.2218642 0.0289,-0.110932 0.0627,-0.2218641 0.01,-0.033762 0.0193,-0.067524 0.0145,-0.033762 0.0241,-0.072347 0.005,-0.00965 0,-0.019292 0,-0.00965 0,-0.019293 0,-0.057878 -0.0145,-0.110932 0.0289,-0.019293 0.0386,-0.048231 0.01,-0.033762 0.0145,-0.067524 0.01,-0.038585 0.0193,-0.072347 0.01,-0.033762 0.0338,-0.057878 V 8.114443 q 0,-0.1688097 0.0482,-0.3279731 0.0482,-0.1639866 0.0868,-0.32315 v -0.019292 q 0,-0.019293 -0.01,-0.028939 -0.01,-0.00965 -0.01,-0.028939 v -0.00965 q 0.01,-0.043408 0.0241,-0.081993 0.0145,-0.043408 0.0241,-0.086816 0.0241,-0.1061089 0.0289,-0.2122179 0.01,-0.1061089 0.0482,-0.2073947 -0.01,-0.038585 -0.01,-0.07717 0,-0.038585 0,-0.07717 0,-0.1109321 0.01,-0.2122179 0.0145,-0.1061089 0.0386,-0.2122179 0.01,-0.038585 0.0241,-0.1012858 0.0193,-0.062701 0.0193,-0.096463 0,-0.057878 -0.0145,-0.1157552 -0.0145,-0.062701 -0.0145,-0.1205783 0,-0.028939 0.005,-0.057878 0.005,-0.028939 0.0241,-0.053054 -0.0338,-0.062701 -0.0338,-0.144694 0,-0.067524 0.0193,-0.1350478 0.0193,-0.072347 0.0675,-0.1205783 h 0.14469 q 0.0675,0 0.13505,0.019292 0.0675,0.019293 0.10129,0.086816 0.01,0.014469 0.0193,0.053055 0.0145,0.033762 0.0241,0.07717 0.0145,0.038585 0.0241,0.07717 0.01,0.033762 0.01,0.053055 0,0.057878 -0.0289,0.1061089 0.0338,0.038585 0.0386,0.086816 0.01,0.043408 0.01,0.091639 z"
             style="font-style:normal;font-variant:normal;font-weight:normal;font-stretch:normal;font-size:4.93888903px;font-family:'Rock Salt';-inkscape-font-specification:'Rock Salt, Normal';font-variant-ligatures:normal;font-variant-caps:normal;font-variant-numeric:normal;font-feature-settings:normal;text-align:center;writing-mode:lr-tb;text-anchor:middle;fill:#d40000;fill-opacity:1;stroke-width:0.01657987px"
             id="path3317"
             inkscape:connector-curvature="0" />
        </g>
        <g
           transform="matrix(2.8569147,1.773051,-3.8118052,1.3288863,-142.85962,-124.1088)"
           id="g3323"
           style="font-style:normal;font-variant:normal;font-weight:normal;font-stretch:normal;font-size:4.93888903px;line-height:6.61458302px;font-family:'Rock Salt';-inkscape-font-specification:'Rock Salt, Normal';font-variant-ligatures:normal;font-variant-caps:normal;font-variant-numeric:normal;font-feature-settings:normal;text-align:center;letter-spacing:0px;word-spacing:0px;writing-mode:lr-tb;text-anchor:middle;fill:#d40000;fill-opacity:1;stroke:none;stroke-width:0.01657987px;stroke-linecap:butt;stroke-linejoin:miter;stroke-opacity:1"
           aria-label="1">
          <path
             inkscape:connector-curvature="0"
             id="path3321"
             style="font-style:normal;font-variant:normal;font-weight:normal;font-stretch:normal;font-size:4.93888903px;font-family:'Rock Salt';-inkscape-font-specification:'Rock Salt, Normal';font-variant-ligatures:normal;font-variant-caps:normal;font-variant-numeric:normal;font-feature-settings:normal;text-align:center;writing-mode:lr-tb;text-anchor:middle;fill:#d40000;fill-opacity:1;stroke-width:0.01657987px"
             d="m 105.7285,5.9151221 q 0,0.096463 -0.0241,0.1881023 -0.0241,0.086816 -0.0386,0.1832791 -0.005,0.00965 -0.005,0.033762 0,0.028939 0.005,0.057878 0.005,0.024116 0.0145,0.048231 -0.0482,0.096463 -0.0724,0.2073948 -0.0241,0.1061089 -0.0434,0.217041 -0.0193,0.1109321 -0.0386,0.2218642 -0.0193,0.110932 -0.0531,0.217041 v 0.014469 q 0,0.024116 0.01,0.043408 0.0145,0.019292 0.0145,0.043408 v 0.019292 q -0.0627,0.2025717 -0.0965,0.4196127 -0.0338,0.2122179 -0.11093,0.3954969 0.01,0.048231 0.01,0.072347 0,0.053054 -0.0145,0.096463 -0.01,0.038585 -0.0289,0.072347 -0.0145,0.028939 -0.0338,0.062701 -0.0145,0.028939 -0.0241,0.062701 -0.005,0.019293 -0.005,0.038585 0,0.019293 0,0.038585 -0.005,0.110932 -0.01,0.1929253 -0.005,0.081993 -0.0675,0.178456 -0.005,0.1254014 -0.0289,0.2411567 -0.0193,0.1157552 -0.0579,0.2363335 -0.0241,0.096463 -0.0579,0.1929254 -0.0338,0.096463 -0.0482,0.1929253 -0.01,0.048231 -0.005,0.1205787 0.01,0.06752 0.01,0.120579 0,0.110932 -0.01,0.217041 -0.005,0.110932 -0.0289,0.212217 0.0145,0.07235 0.053,0.130225 0.0386,0.0627 0.0482,0.135048 0.0145,0.01447 0.0289,0.01447 0.01,0 0.0193,-0.0048 0.0145,-0.0048 0.0289,-0.0048 0.0193,0 0.0289,0.0096 0.0145,0.03858 0.0145,0.06752 0,0.05788 -0.0531,0.101286 0.005,0.02894 0.005,0.04823 0,0.02412 0,0.04823 0,0.03376 -0.01,0.08682 -0.005,0.05305 -0.053,0.05305 -0.0241,0 -0.0241,-0.02894 0.005,-0.02412 -0.0193,-0.03376 -0.0289,0.0096 -0.0482,0.0096 -0.0386,0 -0.0627,-0.01447 -0.0241,-0.01447 -0.0482,-0.02894 -0.0241,-0.01447 -0.0531,-0.02894 -0.0241,-0.0096 -0.0627,-0.0048 -0.0386,-0.07235 -0.0868,-0.139871 -0.0434,-0.0627 -0.10128,-0.115755 -0.0338,-0.115756 -0.0434,-0.241157 -0.005,-0.120578 -0.0482,-0.23151 0.005,-0.0048 0.0145,-0.02894 0.01,-0.02412 0.0193,-0.04823 0.01,-0.02412 0.0145,-0.04823 0.01,-0.02412 0.01,-0.03376 0,-0.02894 -0.01,-0.05305 -0.01,-0.01929 -0.0145,-0.04341 0.0338,-0.110933 0.0434,-0.2411577 0.01,-0.1302246 0.0627,-0.2266873 0.005,-0.048231 0.01,-0.1109321 0.005,-0.067524 0.0145,-0.1254014 0.0145,-0.062701 0.0338,-0.1157552 0.0241,-0.057878 0.0675,-0.096463 -0.01,-0.024116 -0.0145,-0.053055 0,-0.033762 0,-0.057878 0,-0.1157552 0.0241,-0.2218642 0.0289,-0.110932 0.0627,-0.2218641 0.01,-0.033762 0.0193,-0.067524 0.0145,-0.033762 0.0241,-0.072347 0.005,-0.00965 0,-0.019292 0,-0.00965 0,-0.019293 0,-0.057878 -0.0145,-0.110932 0.0289,-0.019293 0.0386,-0.048231 0.01,-0.033762 0.0145,-0.067524 0.01,-0.038585 0.0193,-0.072347 0.01,-0.033762 0.0338,-0.057878 V 8.114443 q 0,-0.1688097 0.0482,-0.3279731 0.0482,-0.1639866 0.0868,-0.32315 v -0.019292 q 0,-0.019293 -0.01,-0.028939 -0.01,-0.00965 -0.01,-0.028939 v -0.00965 q 0.01,-0.043408 0.0241,-0.081993 0.0145,-0.043408 0.0241,-0.086816 0.0241,-0.1061089 0.0289,-0.2122179 0.01,-0.1061089 0.0482,-0.2073947 -0.01,-0.038585 -0.01,-0.07717 0,-0.038585 0,-0.07717 0,-0.1109321 0.01,-0.2122179 0.0145,-0.1061089 0.0386,-0.2122179 0.01,-0.038585 0.0241,-0.1012858 0.0193,-0.062701 0.0193,-0.096463 0,-0.057878 -0.0145,-0.1157552 -0.0145,-0.062701 -0.0145,-0.1205783 0,-0.028939 0.005,-0.057878 0.005,-0.028939 0.0241,-0.053054 -0.0338,-0.062701 -0.0338,-0.144694 0,-0.067524 0.0193,-0.1350478 0.0193,-0.072347 0.0675,-0.1205783 h 0.14469 q 0.0675,0 0.13505,0.019292 0.0675,0.019293 0.10129,0.086816 0.01,0.014469 0.0193,0.053055 0.0145,0.033762 0.0241,0.07717 0.0145,0.038585 0.0241,0.07717 0.01,0.033762 0.01,0.053055 0,0.057878 -0.0289,0.1061089 0.0338,0.038585 0.0386,0.086816 0.01,0.043408 0.01,0.091639 z" />
        </g>
      </g>
    </g>
  </g>
</svg>
